<svg xmlns="http://www.w3.org/2000/svg" viewBox="0 0 300 214">
  <rect width="300" height="214" fill="#f0f0f0"/>
  <rect x="18" y="10" width="264" height="188" rx="3" fill="#ffffff" stroke="#d8d8d8" stroke-width="1"/>
  <rect x="18" y="10" width="264" height="3" fill="#0891b2"/>
  <line x1="30" y1="10" x2="30" y2="198" stroke="#e8e8e8" stroke-width="0.8"/>
  <g opacity="0.65">
    <rect x="34" y="18" width="88" height="7" rx="1" fill="#d0d0d0"/>
    <rect x="34" y="32" width="132" height="86" rx="1" fill="#fafafa" stroke="#e4e4e4" stroke-width="0.8"/>
    <rect x="172" y="32" width="90" height="40" rx="1" fill="#fafafa" stroke="#e4e4e4" stroke-width="0.8"/>
    <rect x="172" y="78" width="90" height="40" rx="1" fill="#fafafa" stroke="#e4e4e4" stroke-width="0.8"/>
    <rect x="34" y="124" width="228" height="20" rx="1" fill="#fafafa" stroke="#e4e4e4" stroke-width="0.8"/>
    <line x1="44" y1="48" x2="156" y2="48" stroke="#e8e8e8" stroke-width="0.8"/>
    <line x1="44" y1="62" x2="156" y2="62" stroke="#e8e8e8" stroke-width="0.8"/>
    <line x1="44" y1="76" x2="156" y2="76" stroke="#e8e8e8" stroke-width="0.8"/>
    <line x1="44" y1="90" x2="156" y2="90" stroke="#e8e8e8" stroke-width="0.8"/>
    <line x1="182" y1="48" x2="252" y2="48" stroke="#e8e8e8" stroke-width="0.8"/>
    <line x1="182" y1="94" x2="252" y2="94" stroke="#e8e8e8" stroke-width="0.8"/>
    <line x1="44" y1="134" x2="252" y2="134" stroke="#e8e8e8" stroke-width="0.8"/>
  </g>
  <rect x="18" y="158" width="264" height="40" fill="rgba(255,255,255,0.92)"/>
  <line x1="18" y1="158" x2="282" y2="158" stroke="#e0e0e0" stroke-width="0.8"/>
  <text x="150" y="174" dominant-baseline="middle" text-anchor="middle" font-size="13" fill="#111111" font-family="'PingFang TC','Microsoft JhengHei',sans-serif" font-weight="600" letter-spacing="0.04em">每日日記</text>
  <text x="150" y="191" dominant-baseline="middle" text-anchor="middle" font-size="8" fill="#aaaaaa" font-family="'PingFang TC','Microsoft JhengHei',sans-serif" letter-spacing="0.08em">Daily Log</text>
</svg>
