<svg xmlns="http://www.w3.org/2000/svg" viewBox="0 0 300 214">
  <rect width="100%" height="100%" fill="#ffffff" />
  <rect x="24" y="16" width="252" height="182" fill="#ffffff" stroke="#e1e1e1" stroke-width="1.5" rx="6" />
  <g opacity="0.6">
    <rect x="40" y="40" width="90" height="120" fill="none" stroke="#ccc" stroke-width="1.5" rx="0" /><line x1="50" y1="55" x2="120" y2="55" stroke="#eaeaea" stroke-width="1.5" stroke-dasharray="" /><line x1="50" y1="67" x2="120" y2="67" stroke="#eaeaea" stroke-width="1.5" stroke-dasharray="" /><line x1="50" y1="79" x2="120" y2="79" stroke="#eaeaea" stroke-width="1.5" stroke-dasharray="" /><line x1="50" y1="91" x2="120" y2="91" stroke="#eaeaea" stroke-width="1.5" stroke-dasharray="" /><line x1="50" y1="103" x2="120" y2="103" stroke="#eaeaea" stroke-width="1.5" stroke-dasharray="" /><line x1="50" y1="115" x2="120" y2="115" stroke="#eaeaea" stroke-width="1.5" stroke-dasharray="" /><line x1="50" y1="127" x2="120" y2="127" stroke="#eaeaea" stroke-width="1.5" stroke-dasharray="" /><line x1="50" y1="139" x2="120" y2="139" stroke="#eaeaea" stroke-width="1.5" stroke-dasharray="" /><rect x="140" y="40" width="120" height="60" fill="none" stroke="#ccc" stroke-width="1.5" rx="0" /><circle cx="146" cy="48" r="4" fill="none" stroke="#ccc" stroke-width="1.2" /><line x1="158" y1="48" x2="260" y2="48" stroke="#eee" stroke-width="1.5" stroke-dasharray="" /><circle cx="146" cy="60" r="4" fill="none" stroke="#ccc" stroke-width="1.2" /><line x1="158" y1="60" x2="260" y2="60" stroke="#eee" stroke-width="1.5" stroke-dasharray="" /><circle cx="146" cy="72" r="4" fill="none" stroke="#ccc" stroke-width="1.2" /><line x1="158" y1="72" x2="260" y2="72" stroke="#eee" stroke-width="1.5" stroke-dasharray="" /><circle cx="146" cy="84" r="4" fill="none" stroke="#ccc" stroke-width="1.2" /><line x1="158" y1="84" x2="260" y2="84" stroke="#eee" stroke-width="1.5" stroke-dasharray="" /><rect x="140" y="110" width="120" height="50" fill="none" stroke="#ccc" stroke-width="1.5" rx="0" />
  </g>
  <rect x="24" y="158" width="252" height="40" fill="rgba(255,255,255,0.85)" />
  <path d="M 24 158 L 276 158" stroke="rgba(0,0,0,0.05)" stroke-width="1" />
  <text x="150" y="178" dominant-baseline="middle" text-anchor="middle" font-size="13" fill="#111" font-family="'PingFang TC', sans-serif" font-weight="600" letter-spacing="0.05em">日計畫</text>
</svg>