<svg xmlns="http://www.w3.org/2000/svg" viewBox="0 0 300 214">
  <rect width="300" height="214" fill="#f0f0f0"/>
  <rect x="18" y="10" width="264" height="188" rx="3" fill="#ffffff" stroke="#d8d8d8" stroke-width="1"/>
  <rect x="18" y="10" width="264" height="3" fill="#2563eb"/>
  <line x1="30" y1="10" x2="30" y2="198" stroke="#e8e8e8" stroke-width="0.8"/>
  <g opacity="0.65">
    <!-- Left: vertical time axis with 8 slots -->
    <line x1="60" y1="18" x2="60" y2="154" stroke="#e0e0e0" stroke-width="1"/>
    <!-- Time slot marks -->
    <line x1="55" y1="26" x2="60" y2="26" stroke="#c8c8c8" stroke-width="0.8"/>
    <line x1="34" y1="26" x2="110" y2="26" stroke="#eee" stroke-width="0.8"/>
    <line x1="55" y1="42" x2="60" y2="42" stroke="#c8c8c8" stroke-width="0.8"/>
    <line x1="34" y1="42" x2="110" y2="42" stroke="#eee" stroke-width="0.8"/>
    <line x1="55" y1="58" x2="60" y2="58" stroke="#c8c8c8" stroke-width="0.8"/>
    <line x1="34" y1="58" x2="110" y2="58" stroke="#eee" stroke-width="0.8"/>
    <line x1="55" y1="74" x2="60" y2="74" stroke="#c8c8c8" stroke-width="0.8"/>
    <line x1="34" y1="74" x2="110" y2="74" stroke="#eee" stroke-width="0.8"/>
    <line x1="55" y1="90" x2="60" y2="90" stroke="#c8c8c8" stroke-width="0.8"/>
    <line x1="34" y1="90" x2="110" y2="90" stroke="#eee" stroke-width="0.8"/>
    <line x1="55" y1="106" x2="60" y2="106" stroke="#c8c8c8" stroke-width="0.8"/>
    <line x1="34" y1="106" x2="110" y2="106" stroke="#eee" stroke-width="0.8"/>
    <line x1="55" y1="122" x2="60" y2="122" stroke="#c8c8c8" stroke-width="0.8"/>
    <line x1="34" y1="122" x2="110" y2="122" stroke="#eee" stroke-width="0.8"/>
    <line x1="55" y1="138" x2="60" y2="138" stroke="#c8c8c8" stroke-width="0.8"/>
    <line x1="34" y1="138" x2="110" y2="138" stroke="#eee" stroke-width="0.8"/>
    <!-- Right: task list with 4 checkbox rows -->
    <rect x="118" y="18" width="144" height="7" rx="1" fill="#d0d0d0"/>
    <rect x="118" y="32" width="5" height="5" rx="0.5" fill="none" stroke="#c0c0c0" stroke-width="0.8"/>
    <line x1="128" y1="34" x2="260" y2="34" stroke="#e0e0e0" stroke-width="1"/>
    <rect x="118" y="44" width="5" height="5" rx="0.5" fill="none" stroke="#c0c0c0" stroke-width="0.8"/>
    <line x1="128" y1="46" x2="260" y2="46" stroke="#e0e0e0" stroke-width="1"/>
    <rect x="118" y="56" width="5" height="5" rx="0.5" fill="none" stroke="#c0c0c0" stroke-width="0.8"/>
    <line x1="128" y1="58" x2="260" y2="58" stroke="#e0e0e0" stroke-width="1"/>
    <rect x="118" y="68" width="5" height="5" rx="0.5" fill="none" stroke="#c0c0c0" stroke-width="0.8"/>
    <line x1="128" y1="70" x2="260" y2="70" stroke="#e0e0e0" stroke-width="1"/>
    <!-- Priority block -->
    <rect x="118" y="84" width="144" height="36" rx="1" fill="#fafafa" stroke="#e4e4e4" stroke-width="0.8"/>
    <line x1="118" y1="94" x2="262" y2="94" stroke="#e8e8e8" stroke-width="0.8"/>
    <line x1="118" y1="104" x2="262" y2="104" stroke="#e8e8e8" stroke-width="0.8"/>
    <!-- Notes area -->
    <rect x="118" y="126" width="144" height="26" rx="1" fill="#fafafa" stroke="#e4e4e4" stroke-width="0.8"/>
    <line x1="118" y1="136" x2="262" y2="136" stroke="#e8e8e8" stroke-width="0.8"/>
    <line x1="118" y1="144" x2="262" y2="144" stroke="#e8e8e8" stroke-width="0.8"/>
  </g>
  <rect x="18" y="158" width="264" height="40" fill="rgba(255,255,255,0.92)"/>
  <line x1="18" y1="158" x2="282" y2="158" stroke="#e0e0e0" stroke-width="0.8"/>
  <text x="150" y="174" dominant-baseline="middle" text-anchor="middle" font-size="13" fill="#111111" font-family="'PingFang TC','Microsoft JhengHei',sans-serif" font-weight="600" letter-spacing="0.04em">日計畫</text>
  <text x="150" y="191" dominant-baseline="middle" text-anchor="middle" font-size="8" fill="#aaaaaa" font-family="'PingFang TC','Microsoft JhengHei',sans-serif" letter-spacing="0.08em">Daily Planner</text>
</svg>
