<svg xmlns="http://www.w3.org/2000/svg" viewBox="0 0 594 420">
  <rect width="594" height="420" fill="#ece6de"/>
  <rect x="24" y="30" width="546" height="360" rx="18" fill="#fff" stroke="#d9d1c6"/>
  <rect x="54" y="56" width="6" height="308" fill="#ded7cd"/>
  <rect x="78" y="56" width="170" height="14" rx="7" fill="#c49d62"/>
  <g fill="#faf8f4" stroke="#e2dbd1" stroke-width="1.5">
    <rect x="78" y="98" width="58" height="48"/><rect x="136" y="98" width="58" height="48"/><rect x="194" y="98" width="58" height="48"/><rect x="252" y="98" width="58" height="48"/><rect x="310" y="98" width="58" height="48"/><rect x="368" y="98" width="58" height="48"/><rect x="426" y="98" width="58" height="48"/>
    <rect x="78" y="146" width="58" height="48"/><rect x="136" y="146" width="58" height="48"/><rect x="194" y="146" width="58" height="48"/><rect x="252" y="146" width="58" height="48"/><rect x="310" y="146" width="58" height="48"/><rect x="368" y="146" width="58" height="48"/><rect x="426" y="146" width="58" height="48"/>
    <rect x="78" y="194" width="58" height="48"/><rect x="136" y="194" width="58" height="48"/><rect x="194" y="194" width="58" height="48"/><rect x="252" y="194" width="58" height="48"/><rect x="310" y="194" width="58" height="48"/><rect x="368" y="194" width="58" height="48"/><rect x="426" y="194" width="58" height="48"/>
    <rect x="78" y="242" width="58" height="48"/><rect x="136" y="242" width="58" height="48"/><rect x="194" y="242" width="58" height="48"/><rect x="252" y="242" width="58" height="48"/><rect x="310" y="242" width="58" height="48"/><rect x="368" y="242" width="58" height="48"/><rect x="426" y="242" width="58" height="48"/>
  </g>
</svg>
