<svg xmlns="http://www.w3.org/2000/svg" viewBox="0 0 300 214">
  <rect width="100%" height="100%" fill="#ffffff" />
  <rect x="24" y="16" width="252" height="182" fill="#ffffff" stroke="#e1e1e1" stroke-width="1.5" rx="6" />
  <g opacity="0.6">
    <rect x="40" y="30" width="80" height="6" fill="#d2d2d2" stroke="none" stroke-width="1.5" rx="0" /><rect x="205" y="30" width="55" height="120" fill="none" stroke="#eaeaea" stroke-width="1.5" rx="0" /><rect x="40" y="45" width="20" height="18" fill="none" stroke="#ccc" stroke-width="1.5" rx="0" /><rect x="62" y="45" width="20" height="18" fill="none" stroke="#ccc" stroke-width="1.5" rx="0" /><rect x="84" y="45" width="20" height="18" fill="none" stroke="#ccc" stroke-width="1.5" rx="0" /><rect x="106" y="45" width="20" height="18" fill="none" stroke="#ccc" stroke-width="1.5" rx="0" /><rect x="128" y="45" width="20" height="18" fill="none" stroke="#ccc" stroke-width="1.5" rx="0" /><rect x="150" y="45" width="20" height="18" fill="none" stroke="#ccc" stroke-width="1.5" rx="0" /><rect x="172" y="45" width="20" height="18" fill="none" stroke="#ccc" stroke-width="1.5" rx="0" /><rect x="40" y="65" width="20" height="18" fill="none" stroke="#ccc" stroke-width="1.5" rx="0" /><rect x="62" y="65" width="20" height="18" fill="none" stroke="#ccc" stroke-width="1.5" rx="0" /><rect x="84" y="65" width="20" height="18" fill="none" stroke="#ccc" stroke-width="1.5" rx="0" /><rect x="106" y="65" width="20" height="18" fill="none" stroke="#ccc" stroke-width="1.5" rx="0" /><rect x="128" y="65" width="20" height="18" fill="none" stroke="#ccc" stroke-width="1.5" rx="0" /><rect x="150" y="65" width="20" height="18" fill="none" stroke="#ccc" stroke-width="1.5" rx="0" /><rect x="172" y="65" width="20" height="18" fill="none" stroke="#ccc" stroke-width="1.5" rx="0" /><rect x="40" y="85" width="20" height="18" fill="none" stroke="#ccc" stroke-width="1.5" rx="0" /><rect x="62" y="85" width="20" height="18" fill="none" stroke="#ccc" stroke-width="1.5" rx="0" /><rect x="84" y="85" width="20" height="18" fill="none" stroke="#ccc" stroke-width="1.5" rx="0" /><rect x="106" y="85" width="20" height="18" fill="none" stroke="#ccc" stroke-width="1.5" rx="0" /><rect x="128" y="85" width="20" height="18" fill="none" stroke="#ccc" stroke-width="1.5" rx="0" /><rect x="150" y="85" width="20" height="18" fill="none" stroke="#ccc" stroke-width="1.5" rx="0" /><rect x="172" y="85" width="20" height="18" fill="none" stroke="#ccc" stroke-width="1.5" rx="0" /><rect x="40" y="105" width="20" height="18" fill="none" stroke="#ccc" stroke-width="1.5" rx="0" /><rect x="62" y="105" width="20" height="18" fill="none" stroke="#ccc" stroke-width="1.5" rx="0" /><rect x="84" y="105" width="20" height="18" fill="none" stroke="#ccc" stroke-width="1.5" rx="0" /><rect x="106" y="105" width="20" height="18" fill="none" stroke="#ccc" stroke-width="1.5" rx="0" /><rect x="128" y="105" width="20" height="18" fill="none" stroke="#ccc" stroke-width="1.5" rx="0" /><rect x="150" y="105" width="20" height="18" fill="none" stroke="#ccc" stroke-width="1.5" rx="0" /><rect x="172" y="105" width="20" height="18" fill="none" stroke="#ccc" stroke-width="1.5" rx="0" /><rect x="40" y="125" width="20" height="18" fill="none" stroke="#ccc" stroke-width="1.5" rx="0" /><rect x="62" y="125" width="20" height="18" fill="none" stroke="#ccc" stroke-width="1.5" rx="0" /><rect x="84" y="125" width="20" height="18" fill="none" stroke="#ccc" stroke-width="1.5" rx="0" /><rect x="106" y="125" width="20" height="18" fill="none" stroke="#ccc" stroke-width="1.5" rx="0" /><rect x="128" y="125" width="20" height="18" fill="none" stroke="#ccc" stroke-width="1.5" rx="0" /><rect x="150" y="125" width="20" height="18" fill="none" stroke="#ccc" stroke-width="1.5" rx="0" /><rect x="172" y="125" width="20" height="18" fill="none" stroke="#ccc" stroke-width="1.5" rx="0" />
  </g>
  <rect x="24" y="158" width="252" height="40" fill="rgba(255,255,255,0.85)" />
  <path d="M 24 158 L 276 158" stroke="rgba(0,0,0,0.05)" stroke-width="1" />
  <text x="150" y="178" dominant-baseline="middle" text-anchor="middle" font-size="13" fill="#111" font-family="'PingFang TC', sans-serif" font-weight="600" letter-spacing="0.05em">月計畫</text>
</svg>