<svg xmlns="http://www.w3.org/2000/svg" viewBox="0 0 300 214">
  <rect width="300" height="214" fill="#f0f0f0"/>
  <rect x="18" y="10" width="264" height="188" rx="3" fill="#ffffff" stroke="#d8d8d8" stroke-width="1"/>
  <rect x="18" y="10" width="264" height="3" fill="#2563eb"/>
  <line x1="30" y1="10" x2="30" y2="198" stroke="#e8e8e8" stroke-width="0.8"/>
  <g opacity="0.65">
    <!-- 3 columns -->
    <line x1="110" y1="16" x2="110" y2="154" stroke="#e4e4e4" stroke-width="0.8"/>
    <line x1="186" y1="16" x2="186" y2="154" stroke="#e4e4e4" stroke-width="0.8"/>
    <!-- Col 1: Month 1 -->
    <rect x="34" y="18" width="70" height="7" rx="1" fill="#d0d0d0"/>
    <line x1="34" y1="32" x2="104" y2="32" stroke="#e0e0e0" stroke-width="1"/>
    <line x1="34" y1="40" x2="104" y2="40" stroke="#e0e0e0" stroke-width="1"/>
    <line x1="34" y1="48" x2="104" y2="48" stroke="#e0e0e0" stroke-width="1"/>
    <line x1="34" y1="56" x2="104" y2="56" stroke="#e0e0e0" stroke-width="1"/>
    <rect x="34" y="64" width="70" height="7" rx="1" fill="#eeeeee"/>
    <line x1="34" y1="78" x2="104" y2="78" stroke="#e0e0e0" stroke-width="1"/>
    <line x1="34" y1="86" x2="104" y2="86" stroke="#e0e0e0" stroke-width="1"/>
    <line x1="34" y1="94" x2="104" y2="94" stroke="#e0e0e0" stroke-width="1"/>
    <line x1="34" y1="102" x2="104" y2="102" stroke="#e0e0e0" stroke-width="1"/>
    <rect x="34" y="110" width="70" height="7" rx="1" fill="#eeeeee"/>
    <line x1="34" y1="124" x2="104" y2="124" stroke="#e0e0e0" stroke-width="1"/>
    <line x1="34" y1="132" x2="104" y2="132" stroke="#e0e0e0" stroke-width="1"/>
    <line x1="34" y1="140" x2="104" y2="140" stroke="#e0e0e0" stroke-width="1"/>
    <line x1="34" y1="148" x2="104" y2="148" stroke="#e0e0e0" stroke-width="1"/>
    <!-- Col 2: Month 2 -->
    <rect x="116" y="18" width="64" height="7" rx="1" fill="#d0d0d0"/>
    <line x1="116" y1="32" x2="180" y2="32" stroke="#e0e0e0" stroke-width="1"/>
    <line x1="116" y1="40" x2="180" y2="40" stroke="#e0e0e0" stroke-width="1"/>
    <line x1="116" y1="48" x2="180" y2="48" stroke="#e0e0e0" stroke-width="1"/>
    <line x1="116" y1="56" x2="180" y2="56" stroke="#e0e0e0" stroke-width="1"/>
    <rect x="116" y="64" width="64" height="7" rx="1" fill="#eeeeee"/>
    <line x1="116" y1="78" x2="180" y2="78" stroke="#e0e0e0" stroke-width="1"/>
    <line x1="116" y1="86" x2="180" y2="86" stroke="#e0e0e0" stroke-width="1"/>
    <line x1="116" y1="94" x2="180" y2="94" stroke="#e0e0e0" stroke-width="1"/>
    <line x1="116" y1="102" x2="180" y2="102" stroke="#e0e0e0" stroke-width="1"/>
    <rect x="116" y="110" width="64" height="7" rx="1" fill="#eeeeee"/>
    <line x1="116" y1="124" x2="180" y2="124" stroke="#e0e0e0" stroke-width="1"/>
    <line x1="116" y1="132" x2="180" y2="132" stroke="#e0e0e0" stroke-width="1"/>
    <line x1="116" y1="140" x2="180" y2="140" stroke="#e0e0e0" stroke-width="1"/>
    <line x1="116" y1="148" x2="180" y2="148" stroke="#e0e0e0" stroke-width="1"/>
    <!-- Col 3: Month 3 -->
    <rect x="192" y="18" width="68" height="7" rx="1" fill="#d0d0d0"/>
    <line x1="192" y1="32" x2="260" y2="32" stroke="#e0e0e0" stroke-width="1"/>
    <line x1="192" y1="40" x2="260" y2="40" stroke="#e0e0e0" stroke-width="1"/>
    <line x1="192" y1="48" x2="260" y2="48" stroke="#e0e0e0" stroke-width="1"/>
    <line x1="192" y1="56" x2="260" y2="56" stroke="#e0e0e0" stroke-width="1"/>
    <rect x="192" y="64" width="68" height="7" rx="1" fill="#eeeeee"/>
    <line x1="192" y1="78" x2="260" y2="78" stroke="#e0e0e0" stroke-width="1"/>
    <line x1="192" y1="86" x2="260" y2="86" stroke="#e0e0e0" stroke-width="1"/>
    <line x1="192" y1="94" x2="260" y2="94" stroke="#e0e0e0" stroke-width="1"/>
    <line x1="192" y1="102" x2="260" y2="102" stroke="#e0e0e0" stroke-width="1"/>
    <rect x="192" y="110" width="68" height="7" rx="1" fill="#eeeeee"/>
    <line x1="192" y1="124" x2="260" y2="124" stroke="#e0e0e0" stroke-width="1"/>
    <line x1="192" y1="132" x2="260" y2="132" stroke="#e0e0e0" stroke-width="1"/>
    <line x1="192" y1="140" x2="260" y2="140" stroke="#e0e0e0" stroke-width="1"/>
    <line x1="192" y1="148" x2="260" y2="148" stroke="#e0e0e0" stroke-width="1"/>
  </g>
  <rect x="18" y="158" width="264" height="40" fill="rgba(255,255,255,0.92)"/>
  <line x1="18" y1="158" x2="282" y2="158" stroke="#e0e0e0" stroke-width="0.8"/>
  <text x="150" y="174" dominant-baseline="middle" text-anchor="middle" font-size="13" fill="#111111" font-family="'PingFang TC','Microsoft JhengHei',sans-serif" font-weight="600" letter-spacing="0.04em">季計畫</text>
  <text x="150" y="191" dominant-baseline="middle" text-anchor="middle" font-size="8" fill="#aaaaaa" font-family="'PingFang TC','Microsoft JhengHei',sans-serif" letter-spacing="0.08em">Quarterly Planner</text>
</svg>
