<svg xmlns="http://www.w3.org/2000/svg" viewBox="0 0 300 214">
  <rect width="100%" height="100%" fill="#ffffff" />
  <rect x="24" y="16" width="252" height="182" fill="#ffffff" stroke="#e1e1e1" stroke-width="1.5" rx="6" />
  <g opacity="0.6">
    <rect x="40" y="40" width="105" height="50" fill="none" stroke="#ccc" stroke-width="1.5" rx="0" /><rect x="40" y="40" width="105" height="12" fill="#f0f0f0" stroke="#ccc" stroke-width="1.5" rx="0" /><line x1="46" y1="64" x2="136" y2="64" stroke="#eaeaea" stroke-width="1.5" stroke-dasharray="" /><line x1="46" y1="76" x2="136" y2="76" stroke="#eaeaea" stroke-width="1.5" stroke-dasharray="" /><rect x="155" y="40" width="105" height="50" fill="none" stroke="#ccc" stroke-width="1.5" rx="0" /><rect x="155" y="40" width="105" height="12" fill="#f0f0f0" stroke="#ccc" stroke-width="1.5" rx="0" /><line x1="161" y1="64" x2="251" y2="64" stroke="#eaeaea" stroke-width="1.5" stroke-dasharray="" /><line x1="161" y1="76" x2="251" y2="76" stroke="#eaeaea" stroke-width="1.5" stroke-dasharray="" /><rect x="40" y="100" width="105" height="50" fill="none" stroke="#ccc" stroke-width="1.5" rx="0" /><rect x="40" y="100" width="105" height="12" fill="#f0f0f0" stroke="#ccc" stroke-width="1.5" rx="0" /><line x1="46" y1="124" x2="136" y2="124" stroke="#eaeaea" stroke-width="1.5" stroke-dasharray="" /><line x1="46" y1="136" x2="136" y2="136" stroke="#eaeaea" stroke-width="1.5" stroke-dasharray="" /><rect x="155" y="100" width="105" height="50" fill="none" stroke="#ccc" stroke-width="1.5" rx="0" /><rect x="155" y="100" width="105" height="12" fill="#f0f0f0" stroke="#ccc" stroke-width="1.5" rx="0" /><line x1="161" y1="124" x2="251" y2="124" stroke="#eaeaea" stroke-width="1.5" stroke-dasharray="" /><line x1="161" y1="136" x2="251" y2="136" stroke="#eaeaea" stroke-width="1.5" stroke-dasharray="" />
  </g>
  <rect x="24" y="158" width="252" height="40" fill="rgba(255,255,255,0.85)" />
  <path d="M 24 158 L 276 158" stroke="rgba(0,0,0,0.05)" stroke-width="1" />
  <text x="150" y="178" dominant-baseline="middle" text-anchor="middle" font-size="13" fill="#111" font-family="'PingFang TC', sans-serif" font-weight="600" letter-spacing="0.05em">季計畫</text>
</svg>