<svg xmlns="http://www.w3.org/2000/svg" viewBox="0 0 300 214">
  <rect width="300" height="214" fill="#f0f0f0"/>
  <rect x="18" y="10" width="264" height="188" rx="3" fill="#ffffff" stroke="#d8d8d8" stroke-width="1"/>
  <rect x="18" y="10" width="264" height="3" fill="#2563eb"/>
  <line x1="30" y1="10" x2="30" y2="198" stroke="#e8e8e8" stroke-width="0.8"/>
  <g opacity="0.65">
    <!-- Header: destination + dates -->
    <rect x="34" y="18" width="160" height="7" rx="1" fill="#d0d0d0"/>
    <rect x="202" y="18" width="60" height="7" rx="1" fill="#eeeeee"/>
    <line x1="34" y1="30" x2="264" y2="30" stroke="#d8d8d8" stroke-width="0.8"/>
    <!-- Itinerary list -->
    <rect x="34" y="34" width="60" height="5" rx="1" fill="#d8d8d8"/>
    <rect x="34" y="44" width="5" height="5" rx="0.5" fill="none" stroke="#c0c0c0" stroke-width="0.8"/>
    <line x1="44" y1="46" x2="264" y2="46" stroke="#e0e0e0" stroke-width="1"/>
    <rect x="34" y="54" width="5" height="5" rx="0.5" fill="none" stroke="#c0c0c0" stroke-width="0.8"/>
    <line x1="44" y1="56" x2="264" y2="56" stroke="#e0e0e0" stroke-width="1"/>
    <rect x="34" y="64" width="5" height="5" rx="0.5" fill="none" stroke="#c0c0c0" stroke-width="0.8"/>
    <line x1="44" y1="66" x2="264" y2="66" stroke="#e0e0e0" stroke-width="1"/>
    <rect x="34" y="74" width="5" height="5" rx="0.5" fill="none" stroke="#c0c0c0" stroke-width="0.8"/>
    <line x1="44" y1="76" x2="264" y2="76" stroke="#e0e0e0" stroke-width="1"/>
    <!-- Packing grid -->
    <rect x="34" y="86" width="55" height="5" rx="1" fill="#d8d8d8"/>
    <rect x="34" y="96" width="52" height="8" rx="1" fill="#fafafa" stroke="#e4e4e4" stroke-width="0.8"/>
    <rect x="92" y="96" width="52" height="8" rx="1" fill="#fafafa" stroke="#e4e4e4" stroke-width="0.8"/>
    <rect x="150" y="96" width="52" height="8" rx="1" fill="#fafafa" stroke="#e4e4e4" stroke-width="0.8"/>
    <rect x="208" y="96" width="54" height="8" rx="1" fill="#fafafa" stroke="#e4e4e4" stroke-width="0.8"/>
    <rect x="34" y="108" width="52" height="8" rx="1" fill="#fafafa" stroke="#e4e4e4" stroke-width="0.8"/>
    <rect x="92" y="108" width="52" height="8" rx="1" fill="#fafafa" stroke="#e4e4e4" stroke-width="0.8"/>
    <rect x="150" y="108" width="52" height="8" rx="1" fill="#fafafa" stroke="#e4e4e4" stroke-width="0.8"/>
    <rect x="208" y="108" width="54" height="8" rx="1" fill="#fafafa" stroke="#e4e4e4" stroke-width="0.8"/>
    <!-- Notes box -->
    <rect x="34" y="122" width="52" height="5" rx="1" fill="#d8d8d8"/>
    <rect x="34" y="132" width="228" height="20" rx="1" fill="#fafafa" stroke="#e4e4e4" stroke-width="0.8"/>
    <line x1="34" y1="142" x2="262" y2="142" stroke="#e8e8e8" stroke-width="0.8"/>
  </g>
  <rect x="18" y="158" width="264" height="40" fill="rgba(255,255,255,0.92)"/>
  <line x1="18" y1="158" x2="282" y2="158" stroke="#e0e0e0" stroke-width="0.8"/>
  <text x="150" y="174" dominant-baseline="middle" text-anchor="middle" font-size="13" fill="#111111" font-family="'PingFang TC','Microsoft JhengHei',sans-serif" font-weight="600" letter-spacing="0.04em">旅遊計畫</text>
  <text x="150" y="191" dominant-baseline="middle" text-anchor="middle" font-size="8" fill="#aaaaaa" font-family="'PingFang TC','Microsoft JhengHei',sans-serif" letter-spacing="0.08em">Travel Planner</text>
</svg>
