<svg xmlns="http://www.w3.org/2000/svg" viewBox="0 0 300 214">
  <rect width="100%" height="100%" fill="#ffffff" />
  <rect x="24" y="16" width="252" height="182" fill="#ffffff" stroke="#e1e1e1" stroke-width="1.5" rx="6" />
  <g opacity="0.6">
    <rect x="40" y="35" width="80" height="8" fill="#d2d2d2" stroke="none" stroke-width="1.5" rx="0" /><rect x="40" y="50" width="48" height="48" fill="none" stroke="#ccc" stroke-width="1.5" rx="0" /><rect x="97" y="50" width="48" height="48" fill="none" stroke="#ccc" stroke-width="1.5" rx="0" /><rect x="154" y="50" width="48" height="48" fill="none" stroke="#ccc" stroke-width="1.5" rx="0" /><rect x="211" y="50" width="48" height="48" fill="none" stroke="#ccc" stroke-width="1.5" rx="0" /><rect x="40" y="108" width="48" height="48" fill="none" stroke="#ccc" stroke-width="1.5" rx="0" /><rect x="97" y="108" width="48" height="48" fill="none" stroke="#ccc" stroke-width="1.5" rx="0" /><rect x="154" y="108" width="48" height="48" fill="none" stroke="#ccc" stroke-width="1.5" rx="0" /><rect x="211" y="108" width="48" height="48" fill="#f5f5f5" stroke="#eaeaea" stroke-width="1.5" rx="0" />
  </g>
  <rect x="24" y="158" width="252" height="40" fill="rgba(255,255,255,0.85)" />
  <path d="M 24 158 L 276 158" stroke="rgba(0,0,0,0.05)" stroke-width="1" />
  <text x="150" y="178" dominant-baseline="middle" text-anchor="middle" font-size="13" fill="#111" font-family="'PingFang TC', sans-serif" font-weight="600" letter-spacing="0.05em">週計畫</text>
</svg>