<svg xmlns="http://www.w3.org/2000/svg" viewBox="0 0 300 214">
  <rect width="300" height="214" fill="#f0f0f0"/>
  <rect x="18" y="10" width="264" height="188" rx="3" fill="#ffffff" stroke="#d8d8d8" stroke-width="1"/>
  <rect x="18" y="10" width="264" height="3" fill="#2563eb"/>
  <line x1="30" y1="10" x2="30" y2="198" stroke="#e8e8e8" stroke-width="0.8"/>
  <g opacity="0.65">
    <!-- 2 rows × 4 columns of day boxes -->
    <!-- Row 1 -->
    <rect x="34" y="18" width="60" height="62" rx="1" fill="#fafafa" stroke="#e4e4e4" stroke-width="0.8"/>
    <rect x="34" y="18" width="60" height="8" rx="1" fill="#eeeeee"/>
    <line x1="34" y1="34" x2="94" y2="34" stroke="#e8e8e8" stroke-width="0.8"/>
    <line x1="34" y1="42" x2="94" y2="42" stroke="#e8e8e8" stroke-width="0.8"/>
    <line x1="34" y1="50" x2="94" y2="50" stroke="#e8e8e8" stroke-width="0.8"/>
    <line x1="34" y1="58" x2="94" y2="58" stroke="#e8e8e8" stroke-width="0.8"/>
    <line x1="34" y1="66" x2="94" y2="66" stroke="#e8e8e8" stroke-width="0.8"/>
    <rect x="100" y="18" width="60" height="62" rx="1" fill="#fafafa" stroke="#e4e4e4" stroke-width="0.8"/>
    <rect x="100" y="18" width="60" height="8" rx="1" fill="#eeeeee"/>
    <line x1="100" y1="34" x2="160" y2="34" stroke="#e8e8e8" stroke-width="0.8"/>
    <line x1="100" y1="42" x2="160" y2="42" stroke="#e8e8e8" stroke-width="0.8"/>
    <line x1="100" y1="50" x2="160" y2="50" stroke="#e8e8e8" stroke-width="0.8"/>
    <line x1="100" y1="58" x2="160" y2="58" stroke="#e8e8e8" stroke-width="0.8"/>
    <line x1="100" y1="66" x2="160" y2="66" stroke="#e8e8e8" stroke-width="0.8"/>
    <rect x="166" y="18" width="60" height="62" rx="1" fill="#fafafa" stroke="#e4e4e4" stroke-width="0.8"/>
    <rect x="166" y="18" width="60" height="8" rx="1" fill="#eeeeee"/>
    <line x1="166" y1="34" x2="226" y2="34" stroke="#e8e8e8" stroke-width="0.8"/>
    <line x1="166" y1="42" x2="226" y2="42" stroke="#e8e8e8" stroke-width="0.8"/>
    <line x1="166" y1="50" x2="226" y2="50" stroke="#e8e8e8" stroke-width="0.8"/>
    <line x1="166" y1="58" x2="226" y2="58" stroke="#e8e8e8" stroke-width="0.8"/>
    <line x1="166" y1="66" x2="226" y2="66" stroke="#e8e8e8" stroke-width="0.8"/>
    <rect x="232" y="18" width="30" height="62" rx="1" fill="#fafafa" stroke="#e4e4e4" stroke-width="0.8"/>
    <rect x="232" y="18" width="30" height="8" rx="1" fill="#eeeeee"/>
    <!-- Row 2 -->
    <rect x="34" y="86" width="60" height="62" rx="1" fill="#fafafa" stroke="#e4e4e4" stroke-width="0.8"/>
    <rect x="34" y="86" width="60" height="8" rx="1" fill="#eeeeee"/>
    <line x1="34" y1="102" x2="94" y2="102" stroke="#e8e8e8" stroke-width="0.8"/>
    <line x1="34" y1="110" x2="94" y2="110" stroke="#e8e8e8" stroke-width="0.8"/>
    <line x1="34" y1="118" x2="94" y2="118" stroke="#e8e8e8" stroke-width="0.8"/>
    <line x1="34" y1="126" x2="94" y2="126" stroke="#e8e8e8" stroke-width="0.8"/>
    <line x1="34" y1="134" x2="94" y2="134" stroke="#e8e8e8" stroke-width="0.8"/>
    <rect x="100" y="86" width="60" height="62" rx="1" fill="#fafafa" stroke="#e4e4e4" stroke-width="0.8"/>
    <rect x="100" y="86" width="60" height="8" rx="1" fill="#eeeeee"/>
    <line x1="100" y1="102" x2="160" y2="102" stroke="#e8e8e8" stroke-width="0.8"/>
    <line x1="100" y1="110" x2="160" y2="110" stroke="#e8e8e8" stroke-width="0.8"/>
    <line x1="100" y1="118" x2="160" y2="118" stroke="#e8e8e8" stroke-width="0.8"/>
    <line x1="100" y1="126" x2="160" y2="126" stroke="#e8e8e8" stroke-width="0.8"/>
    <line x1="100" y1="134" x2="160" y2="134" stroke="#e8e8e8" stroke-width="0.8"/>
    <rect x="166" y="86" width="60" height="62" rx="1" fill="#fafafa" stroke="#e4e4e4" stroke-width="0.8"/>
    <rect x="166" y="86" width="60" height="8" rx="1" fill="#eeeeee"/>
    <line x1="166" y1="102" x2="226" y2="102" stroke="#e8e8e8" stroke-width="0.8"/>
    <line x1="166" y1="110" x2="226" y2="110" stroke="#e8e8e8" stroke-width="0.8"/>
    <line x1="166" y1="118" x2="226" y2="118" stroke="#e8e8e8" stroke-width="0.8"/>
    <line x1="166" y1="126" x2="226" y2="126" stroke="#e8e8e8" stroke-width="0.8"/>
    <line x1="166" y1="134" x2="226" y2="134" stroke="#e8e8e8" stroke-width="0.8"/>
    <!-- Notes box -->
    <rect x="232" y="86" width="30" height="62" rx="1" fill="#f5f5f5" stroke="#e4e4e4" stroke-width="0.8"/>
    <rect x="232" y="86" width="30" height="8" rx="1" fill="#eeeeee"/>
  </g>
  <rect x="18" y="158" width="264" height="40" fill="rgba(255,255,255,0.92)"/>
  <line x1="18" y1="158" x2="282" y2="158" stroke="#e0e0e0" stroke-width="0.8"/>
  <text x="150" y="174" dominant-baseline="middle" text-anchor="middle" font-size="13" fill="#111111" font-family="'PingFang TC','Microsoft JhengHei',sans-serif" font-weight="600" letter-spacing="0.04em">週計畫</text>
  <text x="150" y="191" dominant-baseline="middle" text-anchor="middle" font-size="8" fill="#aaaaaa" font-family="'PingFang TC','Microsoft JhengHei',sans-serif" letter-spacing="0.08em">Weekly Planner</text>
</svg>
