<svg xmlns="http://www.w3.org/2000/svg" viewBox="0 0 300 214">
  <rect width="100%" height="100%" fill="#ffffff" />
  <rect x="24" y="16" width="252" height="182" fill="#ffffff" stroke="#e1e1e1" stroke-width="1.5" rx="6" />
  <g opacity="0.6">
    <rect x="40" y="35" width="48" height="35" fill="none" stroke="#ccc" stroke-width="1.5" rx="0" /><rect x="44" y="39" width="12" height="4" fill="#ccc" stroke="none" stroke-width="1.5" rx="0" /><line x1="44" y1="49" x2="84" y2="49" stroke="#eaeaea" stroke-width="1.5" stroke-dasharray="" /><line x1="44" y1="55" x2="84" y2="55" stroke="#eaeaea" stroke-width="1.5" stroke-dasharray="" /><line x1="44" y1="61" x2="84" y2="61" stroke="#eaeaea" stroke-width="1.5" stroke-dasharray="" /><rect x="95" y="35" width="48" height="35" fill="none" stroke="#ccc" stroke-width="1.5" rx="0" /><rect x="99" y="39" width="12" height="4" fill="#ccc" stroke="none" stroke-width="1.5" rx="0" /><line x1="99" y1="49" x2="139" y2="49" stroke="#eaeaea" stroke-width="1.5" stroke-dasharray="" /><line x1="99" y1="55" x2="139" y2="55" stroke="#eaeaea" stroke-width="1.5" stroke-dasharray="" /><line x1="99" y1="61" x2="139" y2="61" stroke="#eaeaea" stroke-width="1.5" stroke-dasharray="" /><rect x="150" y="35" width="48" height="35" fill="none" stroke="#ccc" stroke-width="1.5" rx="0" /><rect x="154" y="39" width="12" height="4" fill="#ccc" stroke="none" stroke-width="1.5" rx="0" /><line x1="154" y1="49" x2="194" y2="49" stroke="#eaeaea" stroke-width="1.5" stroke-dasharray="" /><line x1="154" y1="55" x2="194" y2="55" stroke="#eaeaea" stroke-width="1.5" stroke-dasharray="" /><line x1="154" y1="61" x2="194" y2="61" stroke="#eaeaea" stroke-width="1.5" stroke-dasharray="" /><rect x="205" y="35" width="48" height="35" fill="none" stroke="#ccc" stroke-width="1.5" rx="0" /><rect x="209" y="39" width="12" height="4" fill="#ccc" stroke="none" stroke-width="1.5" rx="0" /><line x1="209" y1="49" x2="249" y2="49" stroke="#eaeaea" stroke-width="1.5" stroke-dasharray="" /><line x1="209" y1="55" x2="249" y2="55" stroke="#eaeaea" stroke-width="1.5" stroke-dasharray="" /><line x1="209" y1="61" x2="249" y2="61" stroke="#eaeaea" stroke-width="1.5" stroke-dasharray="" /><rect x="40" y="77" width="48" height="35" fill="none" stroke="#ccc" stroke-width="1.5" rx="0" /><rect x="44" y="81" width="12" height="4" fill="#ccc" stroke="none" stroke-width="1.5" rx="0" /><line x1="44" y1="91" x2="84" y2="91" stroke="#eaeaea" stroke-width="1.5" stroke-dasharray="" /><line x1="44" y1="97" x2="84" y2="97" stroke="#eaeaea" stroke-width="1.5" stroke-dasharray="" /><line x1="44" y1="103" x2="84" y2="103" stroke="#eaeaea" stroke-width="1.5" stroke-dasharray="" /><rect x="95" y="77" width="48" height="35" fill="none" stroke="#ccc" stroke-width="1.5" rx="0" /><rect x="99" y="81" width="12" height="4" fill="#ccc" stroke="none" stroke-width="1.5" rx="0" /><line x1="99" y1="91" x2="139" y2="91" stroke="#eaeaea" stroke-width="1.5" stroke-dasharray="" /><line x1="99" y1="97" x2="139" y2="97" stroke="#eaeaea" stroke-width="1.5" stroke-dasharray="" /><line x1="99" y1="103" x2="139" y2="103" stroke="#eaeaea" stroke-width="1.5" stroke-dasharray="" /><rect x="150" y="77" width="48" height="35" fill="none" stroke="#ccc" stroke-width="1.5" rx="0" /><rect x="154" y="81" width="12" height="4" fill="#ccc" stroke="none" stroke-width="1.5" rx="0" /><line x1="154" y1="91" x2="194" y2="91" stroke="#eaeaea" stroke-width="1.5" stroke-dasharray="" /><line x1="154" y1="97" x2="194" y2="97" stroke="#eaeaea" stroke-width="1.5" stroke-dasharray="" /><line x1="154" y1="103" x2="194" y2="103" stroke="#eaeaea" stroke-width="1.5" stroke-dasharray="" /><rect x="205" y="77" width="48" height="35" fill="none" stroke="#ccc" stroke-width="1.5" rx="0" /><rect x="209" y="81" width="12" height="4" fill="#ccc" stroke="none" stroke-width="1.5" rx="0" /><line x1="209" y1="91" x2="249" y2="91" stroke="#eaeaea" stroke-width="1.5" stroke-dasharray="" /><line x1="209" y1="97" x2="249" y2="97" stroke="#eaeaea" stroke-width="1.5" stroke-dasharray="" /><line x1="209" y1="103" x2="249" y2="103" stroke="#eaeaea" stroke-width="1.5" stroke-dasharray="" /><rect x="40" y="119" width="48" height="35" fill="none" stroke="#ccc" stroke-width="1.5" rx="0" /><rect x="44" y="123" width="12" height="4" fill="#ccc" stroke="none" stroke-width="1.5" rx="0" /><line x1="44" y1="133" x2="84" y2="133" stroke="#eaeaea" stroke-width="1.5" stroke-dasharray="" /><line x1="44" y1="139" x2="84" y2="139" stroke="#eaeaea" stroke-width="1.5" stroke-dasharray="" /><line x1="44" y1="145" x2="84" y2="145" stroke="#eaeaea" stroke-width="1.5" stroke-dasharray="" /><rect x="95" y="119" width="48" height="35" fill="none" stroke="#ccc" stroke-width="1.5" rx="0" /><rect x="99" y="123" width="12" height="4" fill="#ccc" stroke="none" stroke-width="1.5" rx="0" /><line x1="99" y1="133" x2="139" y2="133" stroke="#eaeaea" stroke-width="1.5" stroke-dasharray="" /><line x1="99" y1="139" x2="139" y2="139" stroke="#eaeaea" stroke-width="1.5" stroke-dasharray="" /><line x1="99" y1="145" x2="139" y2="145" stroke="#eaeaea" stroke-width="1.5" stroke-dasharray="" /><rect x="150" y="119" width="48" height="35" fill="none" stroke="#ccc" stroke-width="1.5" rx="0" /><rect x="154" y="123" width="12" height="4" fill="#ccc" stroke="none" stroke-width="1.5" rx="0" /><line x1="154" y1="133" x2="194" y2="133" stroke="#eaeaea" stroke-width="1.5" stroke-dasharray="" /><line x1="154" y1="139" x2="194" y2="139" stroke="#eaeaea" stroke-width="1.5" stroke-dasharray="" /><line x1="154" y1="145" x2="194" y2="145" stroke="#eaeaea" stroke-width="1.5" stroke-dasharray="" /><rect x="205" y="119" width="48" height="35" fill="none" stroke="#ccc" stroke-width="1.5" rx="0" /><rect x="209" y="123" width="12" height="4" fill="#ccc" stroke="none" stroke-width="1.5" rx="0" /><line x1="209" y1="133" x2="249" y2="133" stroke="#eaeaea" stroke-width="1.5" stroke-dasharray="" /><line x1="209" y1="139" x2="249" y2="139" stroke="#eaeaea" stroke-width="1.5" stroke-dasharray="" /><line x1="209" y1="145" x2="249" y2="145" stroke="#eaeaea" stroke-width="1.5" stroke-dasharray="" />
  </g>
  <rect x="24" y="158" width="252" height="40" fill="rgba(255,255,255,0.85)" />
  <path d="M 24 158 L 276 158" stroke="rgba(0,0,0,0.05)" stroke-width="1" />
  <text x="150" y="178" dominant-baseline="middle" text-anchor="middle" font-size="13" fill="#111" font-family="'PingFang TC', sans-serif" font-weight="600" letter-spacing="0.05em">年計畫</text>
</svg>