<svg xmlns="http://www.w3.org/2000/svg" viewBox="0 0 300 214">
  <rect width="300" height="214" fill="#f0f0f0"/>
  <rect x="18" y="10" width="264" height="188" rx="3" fill="#ffffff" stroke="#d8d8d8" stroke-width="1"/>
  <rect x="18" y="10" width="264" height="3" fill="#2563eb"/>
  <line x1="30" y1="10" x2="30" y2="198" stroke="#e8e8e8" stroke-width="0.8"/>
  <g opacity="0.65">
    <!-- 3x4 grid of month blocks -->
    <!-- Row 1 -->
    <rect x="34" y="18" width="70" height="32" rx="1" fill="#fafafa" stroke="#e4e4e4" stroke-width="0.8"/>
    <rect x="34" y="18" width="70" height="6" rx="1" fill="#eeeeee"/>
    <line x1="34" y1="30" x2="104" y2="30" stroke="#e8e8e8" stroke-width="0.8"/>
    <line x1="34" y1="38" x2="104" y2="38" stroke="#e8e8e8" stroke-width="0.8"/>
    <rect x="112" y="18" width="70" height="32" rx="1" fill="#fafafa" stroke="#e4e4e4" stroke-width="0.8"/>
    <rect x="112" y="18" width="70" height="6" rx="1" fill="#eeeeee"/>
    <line x1="112" y1="30" x2="182" y2="30" stroke="#e8e8e8" stroke-width="0.8"/>
    <line x1="112" y1="38" x2="182" y2="38" stroke="#e8e8e8" stroke-width="0.8"/>
    <rect x="190" y="18" width="72" height="32" rx="1" fill="#fafafa" stroke="#e4e4e4" stroke-width="0.8"/>
    <rect x="190" y="18" width="72" height="6" rx="1" fill="#eeeeee"/>
    <line x1="190" y1="30" x2="262" y2="30" stroke="#e8e8e8" stroke-width="0.8"/>
    <line x1="190" y1="38" x2="262" y2="38" stroke="#e8e8e8" stroke-width="0.8"/>
    <!-- Row 2 -->
    <rect x="34" y="56" width="70" height="32" rx="1" fill="#fafafa" stroke="#e4e4e4" stroke-width="0.8"/>
    <rect x="34" y="56" width="70" height="6" rx="1" fill="#eeeeee"/>
    <line x1="34" y1="68" x2="104" y2="68" stroke="#e8e8e8" stroke-width="0.8"/>
    <line x1="34" y1="76" x2="104" y2="76" stroke="#e8e8e8" stroke-width="0.8"/>
    <rect x="112" y="56" width="70" height="32" rx="1" fill="#fafafa" stroke="#e4e4e4" stroke-width="0.8"/>
    <rect x="112" y="56" width="70" height="6" rx="1" fill="#eeeeee"/>
    <line x1="112" y1="68" x2="182" y2="68" stroke="#e8e8e8" stroke-width="0.8"/>
    <line x1="112" y1="76" x2="182" y2="76" stroke="#e8e8e8" stroke-width="0.8"/>
    <rect x="190" y="56" width="72" height="32" rx="1" fill="#fafafa" stroke="#e4e4e4" stroke-width="0.8"/>
    <rect x="190" y="56" width="72" height="6" rx="1" fill="#eeeeee"/>
    <line x1="190" y1="68" x2="262" y2="68" stroke="#e8e8e8" stroke-width="0.8"/>
    <line x1="190" y1="76" x2="262" y2="76" stroke="#e8e8e8" stroke-width="0.8"/>
    <!-- Row 3 -->
    <rect x="34" y="94" width="70" height="32" rx="1" fill="#fafafa" stroke="#e4e4e4" stroke-width="0.8"/>
    <rect x="34" y="94" width="70" height="6" rx="1" fill="#eeeeee"/>
    <line x1="34" y1="106" x2="104" y2="106" stroke="#e8e8e8" stroke-width="0.8"/>
    <line x1="34" y1="114" x2="104" y2="114" stroke="#e8e8e8" stroke-width="0.8"/>
    <rect x="112" y="94" width="70" height="32" rx="1" fill="#fafafa" stroke="#e4e4e4" stroke-width="0.8"/>
    <rect x="112" y="94" width="70" height="6" rx="1" fill="#eeeeee"/>
    <line x1="112" y1="106" x2="182" y2="106" stroke="#e8e8e8" stroke-width="0.8"/>
    <line x1="112" y1="114" x2="182" y2="114" stroke="#e8e8e8" stroke-width="0.8"/>
    <rect x="190" y="94" width="72" height="32" rx="1" fill="#fafafa" stroke="#e4e4e4" stroke-width="0.8"/>
    <rect x="190" y="94" width="72" height="6" rx="1" fill="#eeeeee"/>
    <line x1="190" y1="106" x2="262" y2="106" stroke="#e8e8e8" stroke-width="0.8"/>
    <line x1="190" y1="114" x2="262" y2="114" stroke="#e8e8e8" stroke-width="0.8"/>
    <!-- Row 4 -->
    <rect x="34" y="132" width="70" height="20" rx="1" fill="#fafafa" stroke="#e4e4e4" stroke-width="0.8"/>
    <rect x="34" y="132" width="70" height="6" rx="1" fill="#eeeeee"/>
    <line x1="34" y1="144" x2="104" y2="144" stroke="#e8e8e8" stroke-width="0.8"/>
    <rect x="112" y="132" width="70" height="20" rx="1" fill="#fafafa" stroke="#e4e4e4" stroke-width="0.8"/>
    <rect x="112" y="132" width="70" height="6" rx="1" fill="#eeeeee"/>
    <line x1="112" y1="144" x2="182" y2="144" stroke="#e8e8e8" stroke-width="0.8"/>
    <rect x="190" y="132" width="72" height="20" rx="1" fill="#fafafa" stroke="#e4e4e4" stroke-width="0.8"/>
    <rect x="190" y="132" width="72" height="6" rx="1" fill="#eeeeee"/>
    <line x1="190" y1="144" x2="262" y2="144" stroke="#e8e8e8" stroke-width="0.8"/>
  </g>
  <rect x="18" y="158" width="264" height="40" fill="rgba(255,255,255,0.92)"/>
  <line x1="18" y1="158" x2="282" y2="158" stroke="#e0e0e0" stroke-width="0.8"/>
  <text x="150" y="174" dominant-baseline="middle" text-anchor="middle" font-size="13" fill="#111111" font-family="'PingFang TC','Microsoft JhengHei',sans-serif" font-weight="600" letter-spacing="0.04em">年計畫</text>
  <text x="150" y="191" dominant-baseline="middle" text-anchor="middle" font-size="8" fill="#aaaaaa" font-family="'PingFang TC','Microsoft JhengHei',sans-serif" letter-spacing="0.08em">Yearly Planner</text>
</svg>
