<svg xmlns="http://www.w3.org/2000/svg" viewBox="0 0 300 214">
  <rect width="100%" height="100%" fill="#ffffff" />
  <rect x="24" y="16" width="252" height="182" fill="#ffffff" stroke="#e1e1e1" stroke-width="1.5" rx="6" />
  <g opacity="0.6">
    <rect x="40" y="35" width="220" height="16" fill="#f0f0f0" stroke="none" stroke-width="1.5" rx="0" /><rect x="40" y="55" width="220" height="16" fill="none" stroke="#ccc" stroke-width="1.5" rx="0" /><line x1="120" y1="55" x2="120" y2="150" stroke="#eaeaea" stroke-width="1.5" stroke-dasharray="" /><line x1="190" y1="55" x2="190" y2="150" stroke="#eaeaea" stroke-width="1.5" stroke-dasharray="" /><rect x="40" y="71" width="220" height="16" fill="none" stroke="#ccc" stroke-width="1.5" rx="0" /><line x1="120" y1="55" x2="120" y2="150" stroke="#eaeaea" stroke-width="1.5" stroke-dasharray="" /><line x1="190" y1="55" x2="190" y2="150" stroke="#eaeaea" stroke-width="1.5" stroke-dasharray="" /><rect x="40" y="87" width="220" height="16" fill="none" stroke="#ccc" stroke-width="1.5" rx="0" /><line x1="120" y1="55" x2="120" y2="150" stroke="#eaeaea" stroke-width="1.5" stroke-dasharray="" /><line x1="190" y1="55" x2="190" y2="150" stroke="#eaeaea" stroke-width="1.5" stroke-dasharray="" /><rect x="40" y="103" width="220" height="16" fill="none" stroke="#ccc" stroke-width="1.5" rx="0" /><line x1="120" y1="55" x2="120" y2="150" stroke="#eaeaea" stroke-width="1.5" stroke-dasharray="" /><line x1="190" y1="55" x2="190" y2="150" stroke="#eaeaea" stroke-width="1.5" stroke-dasharray="" /><rect x="40" y="119" width="220" height="16" fill="none" stroke="#ccc" stroke-width="1.5" rx="0" /><line x1="120" y1="55" x2="120" y2="150" stroke="#eaeaea" stroke-width="1.5" stroke-dasharray="" /><line x1="190" y1="55" x2="190" y2="150" stroke="#eaeaea" stroke-width="1.5" stroke-dasharray="" /><rect x="40" y="135" width="220" height="16" fill="none" stroke="#ccc" stroke-width="1.5" rx="0" /><line x1="120" y1="55" x2="120" y2="150" stroke="#eaeaea" stroke-width="1.5" stroke-dasharray="" /><line x1="190" y1="55" x2="190" y2="150" stroke="#eaeaea" stroke-width="1.5" stroke-dasharray="" /><rect x="40" y="151" width="220" height="16" fill="#fafafa" stroke="#ccc" stroke-width="1.5" rx="0" />
  </g>
  <rect x="24" y="158" width="252" height="40" fill="rgba(255,255,255,0.85)" />
  <path d="M 24 158 L 276 158" stroke="rgba(0,0,0,0.05)" stroke-width="1" />
  <text x="150" y="178" dominant-baseline="middle" text-anchor="middle" font-size="13" fill="#111" font-family="'PingFang TC', sans-serif" font-weight="600" letter-spacing="0.05em">商品定價試算表</text>
</svg>