<svg xmlns="http://www.w3.org/2000/svg" viewBox="0 0 300 214">
  <rect width="100%" height="100%" fill="#ffffff" />
  <rect x="24" y="16" width="252" height="182" fill="#ffffff" stroke="#e1e1e1" stroke-width="1.5" rx="6" />
  <g opacity="0.6">
    <rect x="40" y="40" width="70" height="70" fill="#f9f9f9" stroke="#ccc" stroke-width="1.5" rx="0" /><line x1="40" y1="40" x2="110" y2="110" stroke="#eaeaea" stroke-width="1.5" stroke-dasharray="" /><line x1="110" y1="40" x2="40" y2="110" stroke="#eaeaea" stroke-width="1.5" stroke-dasharray="" /><line x1="130" y1="50" x2="260" y2="50" stroke="#eaeaea" stroke-width="1.5" stroke-dasharray="" /><line x1="130" y1="66" x2="260" y2="66" stroke="#eaeaea" stroke-width="1.5" stroke-dasharray="" /><line x1="130" y1="82" x2="260" y2="82" stroke="#eaeaea" stroke-width="1.5" stroke-dasharray="" /><line x1="130" y1="98" x2="260" y2="98" stroke="#eaeaea" stroke-width="1.5" stroke-dasharray="" /><circle cx="46" cy="130" r="4" fill="none" stroke="#ccc" stroke-width="1.2" /><line x1="58" y1="130" x2="240" y2="130" stroke="#eee" stroke-width="1.5" stroke-dasharray="" /><circle cx="46" cy="146" r="4" fill="none" stroke="#ccc" stroke-width="1.2" /><line x1="58" y1="146" x2="240" y2="146" stroke="#eee" stroke-width="1.5" stroke-dasharray="" />
  </g>
  <rect x="24" y="158" width="252" height="40" fill="rgba(255,255,255,0.85)" />
  <path d="M 24 158 L 276 158" stroke="rgba(0,0,0,0.05)" stroke-width="1" />
  <text x="150" y="178" dominant-baseline="middle" text-anchor="middle" font-size="13" fill="#111" font-family="'PingFang TC', sans-serif" font-weight="600" letter-spacing="0.05em">商品上架檢查表</text>
</svg>