<svg xmlns="http://www.w3.org/2000/svg" viewBox="0 0 300 214">
  <rect width="300" height="214" fill="#f0f0f0"/>
  <rect x="18" y="10" width="264" height="188" rx="3" fill="#ffffff" stroke="#d8d8d8" stroke-width="1"/>
  <rect x="18" y="10" width="264" height="3" fill="#7c3aed"/>
  <line x1="30" y1="10" x2="30" y2="198" stroke="#e8e8e8" stroke-width="0.8"/>
  <g opacity="0.65">
    <!-- Table header row -->
    <rect x="34" y="18" width="228" height="9" rx="1" fill="#eeeeee"/>
    <!-- Column dividers -->
    <line x1="46" y1="18" x2="46" y2="152" stroke="#e4e4e4" stroke-width="0.8"/>
    <line x1="190" y1="18" x2="190" y2="152" stroke="#e4e4e4" stroke-width="0.8"/>
    <line x1="224" y1="18" x2="224" y2="152" stroke="#e4e4e4" stroke-width="0.8"/>
    <!-- Row 1 -->
    <rect x="36" y="29" width="5" height="5" rx="0.5" fill="none" stroke="#c0c0c0" stroke-width="0.8"/>
    <line x1="50" y1="32" x2="186" y2="32" stroke="#e0e0e0" stroke-width="1"/>
    <line x1="194" y1="32" x2="220" y2="32" stroke="#e0e0e0" stroke-width="1"/>
    <line x1="228" y1="32" x2="260" y2="32" stroke="#e0e0e0" stroke-width="1"/>
    <!-- Row 2 -->
    <rect x="36" y="41" width="5" height="5" rx="0.5" fill="none" stroke="#c0c0c0" stroke-width="0.8"/>
    <line x1="50" y1="44" x2="186" y2="44" stroke="#e0e0e0" stroke-width="1"/>
    <line x1="194" y1="44" x2="220" y2="44" stroke="#e0e0e0" stroke-width="1"/>
    <line x1="228" y1="44" x2="260" y2="44" stroke="#e0e0e0" stroke-width="1"/>
    <!-- Row 3 -->
    <rect x="36" y="53" width="5" height="5" rx="0.5" fill="none" stroke="#c0c0c0" stroke-width="0.8"/>
    <line x1="50" y1="56" x2="186" y2="56" stroke="#e0e0e0" stroke-width="1"/>
    <line x1="194" y1="56" x2="220" y2="56" stroke="#e0e0e0" stroke-width="1"/>
    <line x1="228" y1="56" x2="260" y2="56" stroke="#e0e0e0" stroke-width="1"/>
    <!-- Row 4 -->
    <rect x="36" y="65" width="5" height="5" rx="0.5" fill="none" stroke="#c0c0c0" stroke-width="0.8"/>
    <line x1="50" y1="68" x2="186" y2="68" stroke="#e0e0e0" stroke-width="1"/>
    <line x1="194" y1="68" x2="220" y2="68" stroke="#e0e0e0" stroke-width="1"/>
    <line x1="228" y1="68" x2="260" y2="68" stroke="#e0e0e0" stroke-width="1"/>
    <!-- Row 5 -->
    <rect x="36" y="77" width="5" height="5" rx="0.5" fill="none" stroke="#c0c0c0" stroke-width="0.8"/>
    <line x1="50" y1="80" x2="186" y2="80" stroke="#e0e0e0" stroke-width="1"/>
    <line x1="194" y1="80" x2="220" y2="80" stroke="#e0e0e0" stroke-width="1"/>
    <line x1="228" y1="80" x2="260" y2="80" stroke="#e0e0e0" stroke-width="1"/>
    <!-- Row 6 -->
    <rect x="36" y="89" width="5" height="5" rx="0.5" fill="none" stroke="#c0c0c0" stroke-width="0.8"/>
    <line x1="50" y1="92" x2="186" y2="92" stroke="#e0e0e0" stroke-width="1"/>
    <line x1="194" y1="92" x2="220" y2="92" stroke="#e0e0e0" stroke-width="1"/>
    <line x1="228" y1="92" x2="260" y2="92" stroke="#e0e0e0" stroke-width="1"/>
    <!-- Notes area -->
    <rect x="34" y="106" width="228" height="44" rx="1" fill="#fafafa" stroke="#e4e4e4" stroke-width="0.8"/>
    <line x1="34" y1="116" x2="262" y2="116" stroke="#e8e8e8" stroke-width="0.8"/>
    <line x1="34" y1="126" x2="262" y2="126" stroke="#e8e8e8" stroke-width="0.8"/>
    <line x1="34" y1="136" x2="262" y2="136" stroke="#e8e8e8" stroke-width="0.8"/>
    <line x1="34" y1="146" x2="262" y2="146" stroke="#e8e8e8" stroke-width="0.8"/>
  </g>
  <rect x="18" y="158" width="264" height="40" fill="rgba(255,255,255,0.92)"/>
  <line x1="18" y1="158" x2="282" y2="158" stroke="#e0e0e0" stroke-width="0.8"/>
  <text x="150" y="174" dominant-baseline="middle" text-anchor="middle" font-size="13" fill="#111111" font-family="'PingFang TC','Microsoft JhengHei',sans-serif" font-weight="600" letter-spacing="0.04em">商品清單</text>
  <text x="150" y="191" dominant-baseline="middle" text-anchor="middle" font-size="8" fill="#aaaaaa" font-family="'PingFang TC','Microsoft JhengHei',sans-serif" letter-spacing="0.08em">Product Listing</text>
</svg>
