<svg xmlns="http://www.w3.org/2000/svg" viewBox="0 0 300 214">
  <rect width="300" height="214" fill="#f0f0f0"/>
  <rect x="18" y="10" width="264" height="188" rx="3" fill="#ffffff" stroke="#d8d8d8" stroke-width="1"/>
  <rect x="18" y="10" width="264" height="3" fill="#7c3aed"/>
  <line x1="30" y1="10" x2="30" y2="198" stroke="#e8e8e8" stroke-width="0.8"/>
  <g opacity="0.65">
    <!-- Header bar -->
    <rect x="34" y="18" width="228" height="8" rx="1" fill="#d0d0d0"/>
    <!-- Calendar grid 4 weeks × 2 rows -->
    <!-- Week row labels left side -->
    <rect x="34" y="30" width="20" height="28" rx="1" fill="#eeeeee"/>
    <rect x="34" y="62" width="20" height="28" rx="1" fill="#eeeeee"/>
    <rect x="34" y="94" width="20" height="28" rx="1" fill="#eeeeee"/>
    <rect x="34" y="126" width="20" height="28" rx="1" fill="#eeeeee"/>
    <!-- Grid cells 4 cols × row 1 -->
    <rect x="58" y="30" width="52" height="28" rx="1" fill="#fafafa" stroke="#e4e4e4" stroke-width="0.8"/>
    <line x1="58" y1="40" x2="110" y2="40" stroke="#e8e8e8" stroke-width="0.8"/>
    <rect x="114" y="30" width="52" height="28" rx="1" fill="#fafafa" stroke="#e4e4e4" stroke-width="0.8"/>
    <line x1="114" y1="40" x2="166" y2="40" stroke="#e8e8e8" stroke-width="0.8"/>
    <rect x="170" y="30" width="52" height="28" rx="1" fill="#fafafa" stroke="#e4e4e4" stroke-width="0.8"/>
    <line x1="170" y1="40" x2="222" y2="40" stroke="#e8e8e8" stroke-width="0.8"/>
    <rect x="226" y="30" width="36" height="28" rx="1" fill="#fafafa" stroke="#e4e4e4" stroke-width="0.8"/>
    <!-- Grid cells row 2 -->
    <rect x="58" y="62" width="52" height="28" rx="1" fill="#fafafa" stroke="#e4e4e4" stroke-width="0.8"/>
    <line x1="58" y1="72" x2="110" y2="72" stroke="#e8e8e8" stroke-width="0.8"/>
    <rect x="114" y="62" width="52" height="28" rx="1" fill="#fafafa" stroke="#e4e4e4" stroke-width="0.8"/>
    <line x1="114" y1="72" x2="166" y2="72" stroke="#e8e8e8" stroke-width="0.8"/>
    <rect x="170" y="62" width="52" height="28" rx="1" fill="#fafafa" stroke="#e4e4e4" stroke-width="0.8"/>
    <line x1="170" y1="72" x2="222" y2="72" stroke="#e8e8e8" stroke-width="0.8"/>
    <rect x="226" y="62" width="36" height="28" rx="1" fill="#fafafa" stroke="#e4e4e4" stroke-width="0.8"/>
    <!-- Grid cells row 3 -->
    <rect x="58" y="94" width="52" height="28" rx="1" fill="#fafafa" stroke="#e4e4e4" stroke-width="0.8"/>
    <line x1="58" y1="104" x2="110" y2="104" stroke="#e8e8e8" stroke-width="0.8"/>
    <rect x="114" y="94" width="52" height="28" rx="1" fill="#fafafa" stroke="#e4e4e4" stroke-width="0.8"/>
    <line x1="114" y1="104" x2="166" y2="104" stroke="#e8e8e8" stroke-width="0.8"/>
    <rect x="170" y="94" width="52" height="28" rx="1" fill="#fafafa" stroke="#e4e4e4" stroke-width="0.8"/>
    <line x1="170" y1="104" x2="222" y2="104" stroke="#e8e8e8" stroke-width="0.8"/>
    <rect x="226" y="94" width="36" height="28" rx="1" fill="#fafafa" stroke="#e4e4e4" stroke-width="0.8"/>
    <!-- Grid cells row 4 -->
    <rect x="58" y="126" width="52" height="28" rx="1" fill="#fafafa" stroke="#e4e4e4" stroke-width="0.8"/>
    <rect x="114" y="126" width="52" height="28" rx="1" fill="#fafafa" stroke="#e4e4e4" stroke-width="0.8"/>
    <rect x="170" y="126" width="52" height="28" rx="1" fill="#fafafa" stroke="#e4e4e4" stroke-width="0.8"/>
    <rect x="226" y="126" width="36" height="28" rx="1" fill="#fafafa" stroke="#e4e4e4" stroke-width="0.8"/>
  </g>
  <rect x="18" y="158" width="264" height="40" fill="rgba(255,255,255,0.92)"/>
  <line x1="18" y1="158" x2="282" y2="158" stroke="#e0e0e0" stroke-width="0.8"/>
  <text x="150" y="174" dominant-baseline="middle" text-anchor="middle" font-size="13" fill="#111111" font-family="'PingFang TC','Microsoft JhengHei',sans-serif" font-weight="600" letter-spacing="0.04em">促銷計畫</text>
  <text x="150" y="191" dominant-baseline="middle" text-anchor="middle" font-size="8" fill="#aaaaaa" font-family="'PingFang TC','Microsoft JhengHei',sans-serif" letter-spacing="0.08em">Promo Plan</text>
</svg>
