<svg xmlns="http://www.w3.org/2000/svg" viewBox="0 0 300 214">
  <rect width="300" height="214" fill="#f0f0f0"/>
  <rect x="18" y="10" width="264" height="188" rx="3" fill="#ffffff" stroke="#d8d8d8" stroke-width="1"/>
  <rect x="18" y="10" width="264" height="3" fill="#dc2626"/>
  <line x1="30" y1="10" x2="30" y2="198" stroke="#e8e8e8" stroke-width="0.8"/>
  <g opacity="0.65">
    <rect x="34" y="18" width="122" height="7" rx="1" fill="#d0d0d0"/>
    <rect x="34" y="32" width="70" height="34" rx="1" fill="#fafafa" stroke="#e4e4e4" stroke-width="0.8"/>
    <rect x="113" y="32" width="70" height="34" rx="1" fill="#fafafa" stroke="#e4e4e4" stroke-width="0.8"/>
    <rect x="192" y="32" width="70" height="34" rx="1" fill="#fafafa" stroke="#e4e4e4" stroke-width="0.8"/>
    <rect x="34" y="76" width="228" height="50" rx="1" fill="#fafafa" stroke="#e4e4e4" stroke-width="0.8"/>
    <polyline points="44,108 84,96 124,100 164,88 204,92 244,82" fill="none" stroke="#d0d0d0" stroke-width="1.5"/>
    <rect x="34" y="132" width="228" height="16" rx="1" fill="#fafafa" stroke="#e4e4e4" stroke-width="0.8"/>
  </g>
  <rect x="18" y="158" width="264" height="40" fill="rgba(255,255,255,0.92)"/>
  <line x1="18" y1="158" x2="282" y2="158" stroke="#e0e0e0" stroke-width="0.8"/>
  <text x="150" y="174" dominant-baseline="middle" text-anchor="middle" font-size="13" fill="#111111" font-family="'PingFang TC','Microsoft JhengHei',sans-serif" font-weight="600" letter-spacing="0.04em">體重／身體數據追蹤</text>
  <text x="150" y="191" dominant-baseline="middle" text-anchor="middle" font-size="8" fill="#aaaaaa" font-family="'PingFang TC','Microsoft JhengHei',sans-serif" letter-spacing="0.08em">Body Metrics Tracker</text>
</svg>
