<svg xmlns="http://www.w3.org/2000/svg" viewBox="0 0 300 214">
  <rect width="300" height="214" fill="#f0f0f0"/>
  <rect x="18" y="10" width="264" height="188" rx="3" fill="#ffffff" stroke="#d8d8d8" stroke-width="1"/>
  <rect x="18" y="10" width="264" height="3" fill="#dc2626"/>
  <line x1="30" y1="10" x2="30" y2="198" stroke="#e8e8e8" stroke-width="0.8"/>
  <g opacity="0.65">
    <rect x="34" y="18" width="98" height="7" rx="1" fill="#d0d0d0"/>
    <rect x="34" y="30" width="228" height="52" rx="1" fill="#fafafa" stroke="#e4e4e4" stroke-width="0.8"/>
    <line x1="54" y1="40" x2="246" y2="40" stroke="#ececec" stroke-width="0.8"/>
    <line x1="54" y1="52" x2="246" y2="52" stroke="#ececec" stroke-width="0.8"/>
    <line x1="54" y1="64" x2="246" y2="64" stroke="#ececec" stroke-width="0.8"/>
    <rect x="72" y="36" width="74" height="8" rx="1" fill="#d7d7d7"/>
    <rect x="110" y="48" width="88" height="8" rx="1" fill="#d7d7d7"/>
    <rect x="154" y="60" width="64" height="8" rx="1" fill="#d7d7d7"/>
    <rect x="34" y="90" width="108" height="38" rx="1" fill="#fafafa" stroke="#e4e4e4" stroke-width="0.8"/>
    <rect x="154" y="90" width="108" height="38" rx="1" fill="#fafafa" stroke="#e4e4e4" stroke-width="0.8"/>
  </g>
  <rect x="18" y="158" width="264" height="40" fill="rgba(255,255,255,0.92)"/>
  <line x1="18" y1="158" x2="282" y2="158" stroke="#e0e0e0" stroke-width="0.8"/>
  <text x="150" y="174" dominant-baseline="middle" text-anchor="middle" font-size="13" fill="#111111" font-family="'PingFang TC','Microsoft JhengHei',sans-serif" font-weight="600" letter-spacing="0.04em">睡眠追蹤表</text>
  <text x="150" y="191" dominant-baseline="middle" text-anchor="middle" font-size="8" fill="#aaaaaa" font-family="'PingFang TC','Microsoft JhengHei',sans-serif" letter-spacing="0.08em">Sleep Tracker</text>
</svg>
