<svg xmlns="http://www.w3.org/2000/svg" viewBox="0 0 300 214">
  <rect width="300" height="214" fill="#f0f0f0"/>
  <rect x="18" y="10" width="264" height="188" rx="3" fill="#ffffff" stroke="#d8d8d8" stroke-width="1"/>
  <rect x="18" y="10" width="264" height="3" fill="#0891b2"/>
  <line x1="30" y1="10" x2="30" y2="198" stroke="#e8e8e8" stroke-width="0.8"/>
  <g opacity="0.65">
    <rect x="34" y="18" width="118" height="7" rx="1" fill="#d0d0d0"/>
    <rect x="34" y="30" width="140" height="92" rx="1" fill="#fafafa" stroke="#e4e4e4" stroke-width="0.8"/>
    <rect x="180" y="30" width="82" height="28" rx="1" fill="#fafafa" stroke="#e4e4e4" stroke-width="0.8"/>
    <rect x="180" y="62" width="82" height="28" rx="1" fill="#fafafa" stroke="#e4e4e4" stroke-width="0.8"/>
    <rect x="180" y="94" width="82" height="28" rx="1" fill="#fafafa" stroke="#e4e4e4" stroke-width="0.8"/>
    <rect x="34" y="126" width="228" height="22" rx="1" fill="#fafafa" stroke="#e4e4e4" stroke-width="0.8"/>
    <rect x="38" y="36" width="26" height="6" rx="1" fill="#d8d8d8"/>
    <line x1="40" y1="52" x2="166" y2="52" stroke="#e8e8e8" stroke-width="0.8"/>
    <line x1="40" y1="62" x2="166" y2="62" stroke="#e8e8e8" stroke-width="0.8"/>
    <line x1="40" y1="72" x2="166" y2="72" stroke="#e8e8e8" stroke-width="0.8"/>
    <line x1="40" y1="82" x2="166" y2="82" stroke="#e8e8e8" stroke-width="0.8"/>
    <line x1="40" y1="92" x2="166" y2="92" stroke="#e8e8e8" stroke-width="0.8"/>
    <rect x="184" y="36" width="20" height="6" rx="1" fill="#d8d8d8"/>
    <rect x="184" y="68" width="20" height="6" rx="1" fill="#d8d8d8"/>
    <rect x="184" y="100" width="20" height="6" rx="1" fill="#d8d8d8"/>
    <line x1="184" y1="46" x2="256" y2="46" stroke="#e8e8e8" stroke-width="0.8"/>
    <line x1="184" y1="78" x2="256" y2="78" stroke="#e8e8e8" stroke-width="0.8"/>
    <line x1="184" y1="110" x2="256" y2="110" stroke="#e8e8e8" stroke-width="0.8"/>
    <line x1="38" y1="138" x2="258" y2="138" stroke="#e8e8e8" stroke-width="0.8"/>
  </g>
  <rect x="18" y="158" width="264" height="40" fill="rgba(255,255,255,0.92)"/>
  <line x1="18" y1="158" x2="282" y2="158" stroke="#e0e0e0" stroke-width="0.8"/>
  <text x="150" y="174" dominant-baseline="middle" text-anchor="middle" font-size="13" fill="#111111" font-family="'PingFang TC','Microsoft JhengHei',sans-serif" font-weight="600" letter-spacing="0.04em">影音 / 線上課程學習筆記</text>
  <text x="150" y="191" dominant-baseline="middle" text-anchor="middle" font-size="8" fill="#aaaaaa" font-family="'PingFang TC','Microsoft JhengHei',sans-serif" letter-spacing="0.08em">Online Learning Notes</text>
</svg>
