<svg xmlns="http://www.w3.org/2000/svg" viewBox="0 0 300 214">
  <rect width="300" height="214" fill="#eef4f8"/>
  <rect x="18" y="10" width="264" height="188" rx="3" fill="#ffffff" stroke="#d6e0e8" stroke-width="1"/>
  <rect x="18" y="10" width="264" height="4" fill="#2f6f9f"/>
  <g opacity="0.96">
    <rect x="32" y="20" width="132" height="8" rx="1.5" fill="#ccd7e3"/>
    <rect x="172" y="20" width="88" height="8" rx="1.5" fill="#dde5ec"/>
    <rect x="32" y="34" width="228" height="14" rx="1.5" fill="#f7fafc" stroke="#dce5ec" stroke-width="0.8"/>
    <rect x="32" y="56" width="144" height="78" rx="2" fill="#fbfdff" stroke="#dce5ec" stroke-width="0.8"/>
    <rect x="184" y="56" width="76" height="26" rx="2" fill="#fbfdff" stroke="#dce5ec" stroke-width="0.8"/>
    <rect x="184" y="88" width="76" height="46" rx="2" fill="#f8fbfe" stroke="#dce5ec" stroke-width="0.8"/>
    <rect x="32" y="140" width="112" height="26" rx="2" fill="#ffffff" stroke="#dce5ec" stroke-width="0.8"/>
    <rect x="148" y="140" width="112" height="26" rx="2" fill="#ffffff" stroke="#dce5ec" stroke-width="0.8"/>
    <rect x="32" y="172" width="136" height="16" rx="2" fill="#f7fafc" stroke="#dce5ec" stroke-width="0.8"/>
    <rect x="174" y="172" width="86" height="16" rx="2" fill="#ffffff" stroke="#dce5ec" stroke-width="0.8"/>

    <line x1="38" y1="64" x2="170" y2="64" stroke="#dce5ec" stroke-width="0.8"/>
    <line x1="38" y1="78" x2="170" y2="78" stroke="#e6edf3" stroke-width="0.8"/>
    <line x1="38" y1="92" x2="170" y2="92" stroke="#e6edf3" stroke-width="0.8"/>
    <line x1="38" y1="106" x2="170" y2="106" stroke="#e6edf3" stroke-width="0.8"/>
    <line x1="38" y1="120" x2="170" y2="120" stroke="#e6edf3" stroke-width="0.8"/>
    <line x1="58" y1="70" x2="58" y2="128" stroke="#dce5ec" stroke-width="0.8"/>
    <line x1="90" y1="70" x2="90" y2="128" stroke="#dce5ec" stroke-width="0.8"/>

    <rect x="190" y="61" width="28" height="6" rx="1" fill="#ccd7e3"/>
    <rect x="224" y="61" width="28" height="6" rx="1" fill="#ccd7e3"/>
    <rect x="190" y="71" width="28" height="6" rx="1" fill="#ccd7e3"/>
    <rect x="224" y="71" width="28" height="6" rx="1" fill="#ccd7e3"/>

    <rect x="190" y="95" width="28" height="12" rx="1.4" fill="#ffffff" stroke="#d6e3ec" stroke-width="0.8" stroke-dasharray="2 1.5"/>
    <rect x="224" y="95" width="28" height="12" rx="1.4" fill="#ffffff" stroke="#d6e3ec" stroke-width="0.8" stroke-dasharray="2 1.5"/>
    <rect x="190" y="111" width="28" height="12" rx="1.4" fill="#ffffff" stroke="#d6e3ec" stroke-width="0.8" stroke-dasharray="2 1.5"/>
    <rect x="224" y="111" width="28" height="12" rx="1.4" fill="#ffffff" stroke="#d6e3ec" stroke-width="0.8" stroke-dasharray="2 1.5"/>

    <line x1="38" y1="150" x2="138" y2="150" stroke="#e6edf3" stroke-width="0.8"/>
    <line x1="38" y1="157" x2="138" y2="157" stroke="#e6edf3" stroke-width="0.8"/>
    <line x1="154" y1="150" x2="254" y2="150" stroke="#e6edf3" stroke-width="0.8"/>
    <line x1="154" y1="157" x2="254" y2="157" stroke="#e6edf3" stroke-width="0.8"/>
    <line x1="38" y1="179" x2="162" y2="179" stroke="#e6edf3" stroke-width="0.8"/>
    <line x1="180" y1="179" x2="254" y2="179" stroke="#e6edf3" stroke-width="0.8"/>
  </g>
  <rect x="18" y="158" width="264" height="40" fill="rgba(255,255,255,0.92)"/>
  <line x1="18" y1="158" x2="282" y2="158" stroke="#dce5ec" stroke-width="0.8"/>
  <text x="150" y="174" dominant-baseline="middle" text-anchor="middle" font-size="13" fill="#111111" font-family="'PingFang TC','Microsoft JhengHei',sans-serif" font-weight="600" letter-spacing="0.04em">影音 / 線上課程學習筆記</text>
  <text x="150" y="191" dominant-baseline="middle" text-anchor="middle" font-size="8" fill="#8b98a5" font-family="'PingFang TC','Microsoft JhengHei',sans-serif" letter-spacing="0.08em">Online Learning Notes</text>
</svg>
