<svg xmlns="http://www.w3.org/2000/svg" viewBox="0 0 594 594">
  <rect width="594" height="594" fill="#ece6de"/>
  <g transform="translate(87 0)">
    <rect width="420" height="594" fill="#ece6de"/>
    <rect x="30" y="24" width="360" height="546" rx="18" fill="#fff" stroke="#d9d1c6"/>
    <rect x="64" y="56" width="6" height="470" fill="#ded7cd"/>
    <rect x="88" y="60" width="148" height="12" rx="6" fill="#b1846f"/>
    <rect x="88" y="96" width="244" height="334" fill="#fff" stroke="#d8d2c8"/>
    <g stroke="#ddd6cc" stroke-width="2">
      <line x1="132" y1="96" x2="132" y2="430"/>
      <line x1="246" y1="96" x2="246" y2="430"/>
      <line x1="304" y1="96" x2="304" y2="430"/>
      <line x1="88" y1="134" x2="332" y2="134"/>
      <line x1="88" y1="172" x2="332" y2="172"/>
      <line x1="88" y1="210" x2="332" y2="210"/>
      <line x1="88" y1="248" x2="332" y2="248"/>
      <line x1="88" y1="286" x2="332" y2="286"/>
      <line x1="88" y1="324" x2="332" y2="324"/>
      <line x1="88" y1="362" x2="332" y2="362"/>
      <line x1="88" y1="400" x2="332" y2="400"/>
    </g>
    <g fill="#faf8f4" stroke="#d8d2c8" stroke-width="2">
      <rect x="88" y="452" width="74" height="64" rx="10"/>
      <rect x="172" y="452" width="74" height="64" rx="10"/>
      <rect x="256" y="452" width="76" height="64" rx="10"/>
    </g>
  </g>
</svg>
