<svg xmlns="http://www.w3.org/2000/svg" viewBox="0 0 300 214">
  <rect width="300" height="214" fill="#f0f0f0"/>
  <rect x="18" y="10" width="264" height="188" rx="3" fill="#ffffff" stroke="#d8d8d8" stroke-width="1"/>
  <rect x="18" y="10" width="264" height="3" fill="#0891b2"/>
  <line x1="30" y1="10" x2="30" y2="198" stroke="#e8e8e8" stroke-width="0.8"/>
  <g opacity="0.65">
    <rect x="34" y="18" width="96" height="7" rx="1" fill="#d0d0d0"/>
    <rect x="34" y="30" width="228" height="102" rx="1" fill="none" stroke="#e4e4e4" stroke-width="0.8"/>
    <line x1="92" y1="30" x2="92" y2="132" stroke="#e8e8e8" stroke-width="0.8"/>
    <line x1="34" y1="104" x2="262" y2="104" stroke="#e8e8e8" stroke-width="0.8"/>
    <line x1="100" y1="48" x2="254" y2="48" stroke="#e0e0e0" stroke-width="1"/>
    <line x1="100" y1="58" x2="254" y2="58" stroke="#e0e0e0" stroke-width="1"/>
    <line x1="100" y1="68" x2="254" y2="68" stroke="#e0e0e0" stroke-width="1"/>
    <line x1="100" y1="78" x2="254" y2="78" stroke="#e0e0e0" stroke-width="1"/>
    <line x1="100" y1="88" x2="254" y2="88" stroke="#e0e0e0" stroke-width="1"/>
  </g>
  <rect x="18" y="158" width="264" height="40" fill="rgba(255,255,255,0.92)"/>
  <line x1="18" y1="158" x2="282" y2="158" stroke="#e0e0e0" stroke-width="0.8"/>
  <text x="150" y="174" dominant-baseline="middle" text-anchor="middle" font-size="13" fill="#111111" font-family="'PingFang TC','Microsoft JhengHei',sans-serif" font-weight="600" letter-spacing="0.04em">康奈爾筆記</text>
  <text x="150" y="191" dominant-baseline="middle" text-anchor="middle" font-size="8" fill="#aaaaaa" font-family="'PingFang TC','Microsoft JhengHei',sans-serif" letter-spacing="0.08em">Cornell Notes</text>
</svg>
