<svg xmlns="http://www.w3.org/2000/svg" viewBox="0 0 300 214">
  <rect width="100%" height="100%" fill="#ffffff" />
  <rect x="24" y="16" width="252" height="182" fill="#ffffff" stroke="#e1e1e1" stroke-width="1.5" rx="6" />
  <g opacity="0.6">
    <circle cx="45" cy="45" r="1.5" fill="#bbb" stroke="none" stroke-width="1.5" /><circle cx="64" cy="45" r="1.5" fill="#bbb" stroke="none" stroke-width="1.5" /><circle cx="83" cy="45" r="1.5" fill="#bbb" stroke="none" stroke-width="1.5" /><circle cx="102" cy="45" r="1.5" fill="#bbb" stroke="none" stroke-width="1.5" /><circle cx="121" cy="45" r="1.5" fill="#bbb" stroke="none" stroke-width="1.5" /><circle cx="140" cy="45" r="1.5" fill="#bbb" stroke="none" stroke-width="1.5" /><circle cx="159" cy="45" r="1.5" fill="#bbb" stroke="none" stroke-width="1.5" /><circle cx="178" cy="45" r="1.5" fill="#bbb" stroke="none" stroke-width="1.5" /><circle cx="197" cy="45" r="1.5" fill="#bbb" stroke="none" stroke-width="1.5" /><circle cx="216" cy="45" r="1.5" fill="#bbb" stroke="none" stroke-width="1.5" /><circle cx="235" cy="45" r="1.5" fill="#bbb" stroke="none" stroke-width="1.5" /><circle cx="254" cy="45" r="1.5" fill="#bbb" stroke="none" stroke-width="1.5" /><circle cx="45" cy="64" r="1.5" fill="#bbb" stroke="none" stroke-width="1.5" /><circle cx="64" cy="64" r="1.5" fill="#bbb" stroke="none" stroke-width="1.5" /><circle cx="83" cy="64" r="1.5" fill="#bbb" stroke="none" stroke-width="1.5" /><circle cx="102" cy="64" r="1.5" fill="#bbb" stroke="none" stroke-width="1.5" /><circle cx="121" cy="64" r="1.5" fill="#bbb" stroke="none" stroke-width="1.5" /><circle cx="140" cy="64" r="1.5" fill="#bbb" stroke="none" stroke-width="1.5" /><circle cx="159" cy="64" r="1.5" fill="#bbb" stroke="none" stroke-width="1.5" /><circle cx="178" cy="64" r="1.5" fill="#bbb" stroke="none" stroke-width="1.5" /><circle cx="197" cy="64" r="1.5" fill="#bbb" stroke="none" stroke-width="1.5" /><circle cx="216" cy="64" r="1.5" fill="#bbb" stroke="none" stroke-width="1.5" /><circle cx="235" cy="64" r="1.5" fill="#bbb" stroke="none" stroke-width="1.5" /><circle cx="254" cy="64" r="1.5" fill="#bbb" stroke="none" stroke-width="1.5" /><circle cx="45" cy="83" r="1.5" fill="#bbb" stroke="none" stroke-width="1.5" /><circle cx="64" cy="83" r="1.5" fill="#bbb" stroke="none" stroke-width="1.5" /><circle cx="83" cy="83" r="1.5" fill="#bbb" stroke="none" stroke-width="1.5" /><circle cx="102" cy="83" r="1.5" fill="#bbb" stroke="none" stroke-width="1.5" /><circle cx="121" cy="83" r="1.5" fill="#bbb" stroke="none" stroke-width="1.5" /><circle cx="140" cy="83" r="1.5" fill="#bbb" stroke="none" stroke-width="1.5" /><circle cx="159" cy="83" r="1.5" fill="#bbb" stroke="none" stroke-width="1.5" /><circle cx="178" cy="83" r="1.5" fill="#bbb" stroke="none" stroke-width="1.5" /><circle cx="197" cy="83" r="1.5" fill="#bbb" stroke="none" stroke-width="1.5" /><circle cx="216" cy="83" r="1.5" fill="#bbb" stroke="none" stroke-width="1.5" /><circle cx="235" cy="83" r="1.5" fill="#bbb" stroke="none" stroke-width="1.5" /><circle cx="254" cy="83" r="1.5" fill="#bbb" stroke="none" stroke-width="1.5" /><circle cx="45" cy="102" r="1.5" fill="#bbb" stroke="none" stroke-width="1.5" /><circle cx="64" cy="102" r="1.5" fill="#bbb" stroke="none" stroke-width="1.5" /><circle cx="83" cy="102" r="1.5" fill="#bbb" stroke="none" stroke-width="1.5" /><circle cx="102" cy="102" r="1.5" fill="#bbb" stroke="none" stroke-width="1.5" /><circle cx="121" cy="102" r="1.5" fill="#bbb" stroke="none" stroke-width="1.5" /><circle cx="140" cy="102" r="1.5" fill="#bbb" stroke="none" stroke-width="1.5" /><circle cx="159" cy="102" r="1.5" fill="#bbb" stroke="none" stroke-width="1.5" /><circle cx="178" cy="102" r="1.5" fill="#bbb" stroke="none" stroke-width="1.5" /><circle cx="197" cy="102" r="1.5" fill="#bbb" stroke="none" stroke-width="1.5" /><circle cx="216" cy="102" r="1.5" fill="#bbb" stroke="none" stroke-width="1.5" /><circle cx="235" cy="102" r="1.5" fill="#bbb" stroke="none" stroke-width="1.5" /><circle cx="254" cy="102" r="1.5" fill="#bbb" stroke="none" stroke-width="1.5" /><circle cx="45" cy="121" r="1.5" fill="#bbb" stroke="none" stroke-width="1.5" /><circle cx="64" cy="121" r="1.5" fill="#bbb" stroke="none" stroke-width="1.5" /><circle cx="83" cy="121" r="1.5" fill="#bbb" stroke="none" stroke-width="1.5" /><circle cx="102" cy="121" r="1.5" fill="#bbb" stroke="none" stroke-width="1.5" /><circle cx="121" cy="121" r="1.5" fill="#bbb" stroke="none" stroke-width="1.5" /><circle cx="140" cy="121" r="1.5" fill="#bbb" stroke="none" stroke-width="1.5" /><circle cx="159" cy="121" r="1.5" fill="#bbb" stroke="none" stroke-width="1.5" /><circle cx="178" cy="121" r="1.5" fill="#bbb" stroke="none" stroke-width="1.5" /><circle cx="197" cy="121" r="1.5" fill="#bbb" stroke="none" stroke-width="1.5" /><circle cx="216" cy="121" r="1.5" fill="#bbb" stroke="none" stroke-width="1.5" /><circle cx="235" cy="121" r="1.5" fill="#bbb" stroke="none" stroke-width="1.5" /><circle cx="254" cy="121" r="1.5" fill="#bbb" stroke="none" stroke-width="1.5" /><circle cx="45" cy="140" r="1.5" fill="#bbb" stroke="none" stroke-width="1.5" /><circle cx="64" cy="140" r="1.5" fill="#bbb" stroke="none" stroke-width="1.5" /><circle cx="83" cy="140" r="1.5" fill="#bbb" stroke="none" stroke-width="1.5" /><circle cx="102" cy="140" r="1.5" fill="#bbb" stroke="none" stroke-width="1.5" /><circle cx="121" cy="140" r="1.5" fill="#bbb" stroke="none" stroke-width="1.5" /><circle cx="140" cy="140" r="1.5" fill="#bbb" stroke="none" stroke-width="1.5" /><circle cx="159" cy="140" r="1.5" fill="#bbb" stroke="none" stroke-width="1.5" /><circle cx="178" cy="140" r="1.5" fill="#bbb" stroke="none" stroke-width="1.5" /><circle cx="197" cy="140" r="1.5" fill="#bbb" stroke="none" stroke-width="1.5" /><circle cx="216" cy="140" r="1.5" fill="#bbb" stroke="none" stroke-width="1.5" /><circle cx="235" cy="140" r="1.5" fill="#bbb" stroke="none" stroke-width="1.5" /><circle cx="254" cy="140" r="1.5" fill="#bbb" stroke="none" stroke-width="1.5" />
  </g>
  <rect x="24" y="158" width="252" height="40" fill="rgba(255,255,255,0.85)" />
  <path d="M 24 158 L 276 158" stroke="rgba(0,0,0,0.05)" stroke-width="1" />
  <text x="150" y="178" dominant-baseline="middle" text-anchor="middle" font-size="13" fill="#111" font-family="'PingFang TC', sans-serif" font-weight="600" letter-spacing="0.05em">方格/點陣/橫線</text>
</svg>