<svg xmlns="http://www.w3.org/2000/svg" viewBox="0 0 300 214">
  <rect width="300" height="214" fill="#f0f0f0"/>
  <rect x="18" y="10" width="264" height="188" rx="3" fill="#ffffff" stroke="#d8d8d8" stroke-width="1"/>
  <rect x="18" y="10" width="264" height="3" fill="#0891b2"/>
  <line x1="30" y1="10" x2="30" y2="198" stroke="#e8e8e8" stroke-width="0.8"/>
  <g opacity="0.65">
    <rect x="34" y="18" width="118" height="7" rx="1" fill="#d0d0d0"/>
    <rect x="34" y="32" width="70" height="102" rx="1" fill="#fafafa" stroke="#e4e4e4" stroke-width="0.8"/>
    <rect x="113" y="32" width="70" height="102" rx="1" fill="#fafafa" stroke="#e4e4e4" stroke-width="0.8"/>
    <rect x="192" y="32" width="70" height="102" rx="1" fill="#fafafa" stroke="#e4e4e4" stroke-width="0.8"/>
    <line x1="48" y1="32" x2="48" y2="134" stroke="#ececec" stroke-width="0.8"/>
    <line x1="62" y1="32" x2="62" y2="134" stroke="#ececec" stroke-width="0.8"/>
    <line x1="76" y1="32" x2="76" y2="134" stroke="#ececec" stroke-width="0.8"/>
    <line x1="90" y1="32" x2="90" y2="134" stroke="#ececec" stroke-width="0.8"/>
    <circle cx="127" cy="46" r="1.2" fill="#cfcfcf"/><circle cx="143" cy="46" r="1.2" fill="#cfcfcf"/><circle cx="159" cy="46" r="1.2" fill="#cfcfcf"/>
    <circle cx="127" cy="62" r="1.2" fill="#cfcfcf"/><circle cx="143" cy="62" r="1.2" fill="#cfcfcf"/><circle cx="159" cy="62" r="1.2" fill="#cfcfcf"/>
    <line x1="200" y1="48" x2="254" y2="48" stroke="#e0e0e0" stroke-width="1"/>
    <line x1="200" y1="62" x2="254" y2="62" stroke="#e0e0e0" stroke-width="1"/>
    <line x1="200" y1="76" x2="254" y2="76" stroke="#e0e0e0" stroke-width="1"/>
    <line x1="200" y1="90" x2="254" y2="90" stroke="#e0e0e0" stroke-width="1"/>
  </g>
  <rect x="18" y="158" width="264" height="40" fill="rgba(255,255,255,0.92)"/>
  <line x1="18" y1="158" x2="282" y2="158" stroke="#e0e0e0" stroke-width="0.8"/>
  <text x="150" y="174" dominant-baseline="middle" text-anchor="middle" font-size="13" fill="#111111" font-family="'PingFang TC','Microsoft JhengHei',sans-serif" font-weight="600" letter-spacing="0.04em">方格 / 點陣 / 橫線頁</text>
  <text x="150" y="191" dominant-baseline="middle" text-anchor="middle" font-size="8" fill="#aaaaaa" font-family="'PingFang TC','Microsoft JhengHei',sans-serif" letter-spacing="0.08em">Grid / Dot / Lines</text>
</svg>
