<svg xmlns="http://www.w3.org/2000/svg" viewBox="0 0 594 594">
  <rect width="594" height="594" fill="#ece6de"/>
  <g transform="translate(87 0)">
    <rect width="420" height="594" fill="#ece6de"/>
    <rect x="30" y="24" width="360" height="546" rx="18" fill="#fff" stroke="#d9d1c6"/>
    <rect x="64" y="56" width="6" height="470" fill="#ded7cd"/>
    <rect x="88" y="60" width="150" height="12" rx="6" fill="#b1846f"/>
    <rect x="88" y="94" width="244" height="30" rx="8" fill="#f7f3ec" stroke="#d8d2c8"/>
    <rect x="88" y="142" width="244" height="332" fill="#fff" stroke="#d8d2c8"/>
    <g stroke="#d8d2c8" stroke-width="1.6" fill="none">
      <rect x="100" y="154" width="48" height="48"/>
      <line x1="124" y1="154" x2="124" y2="202"/>
      <line x1="100" y1="178" x2="148" y2="178"/>
      <line x1="100" y1="154" x2="148" y2="202"/>
      <line x1="148" y1="154" x2="100" y2="202"/>

      <rect x="156" y="154" width="48" height="48"/>
      <line x1="180" y1="154" x2="180" y2="202"/>
      <line x1="156" y1="178" x2="204" y2="178"/>
      <line x1="156" y1="154" x2="204" y2="202"/>
      <line x1="204" y1="154" x2="156" y2="202"/>

      <rect x="212" y="154" width="48" height="48"/>
      <line x1="236" y1="154" x2="236" y2="202"/>
      <line x1="212" y1="178" x2="260" y2="178"/>
      <line x1="212" y1="154" x2="260" y2="202"/>
      <line x1="260" y1="154" x2="212" y2="202"/>

      <rect x="100" y="210" width="48" height="48"/>
      <line x1="124" y1="210" x2="124" y2="258"/>
      <line x1="100" y1="234" x2="148" y2="234"/>
      <line x1="100" y1="210" x2="148" y2="258"/>
      <line x1="148" y1="210" x2="100" y2="258"/>

      <rect x="156" y="210" width="48" height="48"/>
      <line x1="180" y1="210" x2="180" y2="258"/>
      <line x1="156" y1="234" x2="204" y2="234"/>
      <line x1="156" y1="210" x2="204" y2="258"/>
      <line x1="204" y1="210" x2="156" y2="258"/>

      <rect x="212" y="210" width="48" height="48"/>
      <line x1="236" y1="210" x2="236" y2="258"/>
      <line x1="212" y1="234" x2="260" y2="234"/>
      <line x1="212" y1="210" x2="260" y2="258"/>
      <line x1="260" y1="210" x2="212" y2="258"/>
    </g>
  </g>
</svg>
