<svg xmlns="http://www.w3.org/2000/svg" viewBox="0 0 594 594">
  <rect width="594" height="594" fill="#ece6de"/>
  <g transform="translate(87 0)">
    <rect width="420" height="594" fill="#ece6de"/>
      <rect x="30" y="24" width="360" height="546" rx="18" fill="#fff" stroke="#d9d1c6"/>
      <rect x="64" y="56" width="6" height="470" fill="#ded7cd"/>
      <rect x="88" y="60" width="126" height="12" rx="6" fill="#c49d62"/>
      <rect x="88" y="94" width="244" height="30" rx="8" fill="#f7f3ec" stroke="#d8d2c8"/>
      <rect x="88" y="138" width="92" height="248" fill="#faf8f4" stroke="#ddd6cc"/>
      <g stroke="#ddd6cc" stroke-width="2">
        <line x1="100" y1="174" x2="168" y2="174"/>
        <line x1="100" y1="222" x2="168" y2="222"/>
        <line x1="100" y1="270" x2="168" y2="270"/>
        <line x1="100" y1="318" x2="168" y2="318"/>
        <line x1="196" y1="160" x2="332" y2="160"/>
        <line x1="196" y1="196" x2="332" y2="196"/>
        <line x1="196" y1="232" x2="332" y2="232"/>
        <line x1="196" y1="268" x2="332" y2="268"/>
        <line x1="196" y1="304" x2="332" y2="304"/>
        <line x1="196" y1="340" x2="332" y2="340"/>
        <line x1="196" y1="376" x2="332" y2="376"/>
      </g>
      <g fill="#faf8f4" stroke="#d8d2c8" stroke-width="2">
        <rect x="88" y="414" width="116" height="72" rx="10"/>
        <rect x="216" y="414" width="116" height="72" rx="10"/>
        <rect x="88" y="502" width="244" height="40" rx="8"/>
      </g>
      <g stroke="#ddd6cc" stroke-width="2">
        <line x1="104" y1="446" x2="188" y2="446"/>
        <line x1="104" y1="470" x2="188" y2="470"/>
        <line x1="232" y1="446" x2="316" y2="446"/>
        <line x1="232" y1="470" x2="316" y2="470"/>
        <line x1="104" y1="522" x2="316" y2="522"/>
      </g>
  </g>
</svg>
