<svg xmlns="http://www.w3.org/2000/svg" viewBox="0 0 300 214">
  <rect width="300" height="214" fill="#f0f0f0"/>
  <rect x="18" y="10" width="264" height="188" rx="3" fill="#ffffff" stroke="#d8d8d8" stroke-width="1"/>
  <rect x="18" y="10" width="264" height="3" fill="#0891b2"/>
  <line x1="30" y1="10" x2="30" y2="198" stroke="#e8e8e8" stroke-width="0.8"/>
  <g opacity="0.65">
    <rect x="34" y="18" width="92" height="7" rx="1" fill="#d0d0d0"/>
    <rect x="34" y="32" width="228" height="18" rx="1" fill="#f6f6f6" stroke="#e4e4e4" stroke-width="0.8"/>
    <rect x="34" y="58" width="50" height="12" rx="6" fill="#f0f0f0" stroke="#e4e4e4" stroke-width="0.8"/>
    <rect x="90" y="58" width="50" height="12" rx="6" fill="#f0f0f0" stroke="#e4e4e4" stroke-width="0.8"/>
    <rect x="146" y="58" width="50" height="12" rx="6" fill="#f0f0f0" stroke="#e4e4e4" stroke-width="0.8"/>
    <rect x="34" y="80" width="228" height="52" rx="1" fill="#fafafa" stroke="#e4e4e4" stroke-width="0.8"/>
    <line x1="42" y1="94" x2="254" y2="94" stroke="#e0e0e0" stroke-width="1"/>
    <line x1="42" y1="104" x2="254" y2="104" stroke="#e0e0e0" stroke-width="1"/>
    <line x1="42" y1="114" x2="254" y2="114" stroke="#e0e0e0" stroke-width="1"/>
  </g>
  <rect x="18" y="158" width="264" height="40" fill="rgba(255,255,255,0.92)"/>
  <line x1="18" y1="158" x2="282" y2="158" stroke="#e0e0e0" stroke-width="0.8"/>
  <text x="150" y="174" dominant-baseline="middle" text-anchor="middle" font-size="13" fill="#111111" font-family="'PingFang TC','Microsoft JhengHei',sans-serif" font-weight="600" letter-spacing="0.04em">主題筆記</text>
  <text x="150" y="191" dominant-baseline="middle" text-anchor="middle" font-size="8" fill="#aaaaaa" font-family="'PingFang TC','Microsoft JhengHei',sans-serif" letter-spacing="0.08em">Topic Notes</text>
</svg>
