<svg xmlns="http://www.w3.org/2000/svg" viewBox="0 0 300 214">
  <rect width="300" height="214" fill="#f0f0f0"/>
  <rect x="18" y="10" width="264" height="188" rx="3" fill="#ffffff" stroke="#d8d8d8" stroke-width="1"/>
  <rect x="18" y="10" width="264" height="3" fill="#65a30d"/>
  <line x1="30" y1="10" x2="30" y2="198" stroke="#e8e8e8" stroke-width="0.8"/>
  <g opacity="0.65">
    <rect x="34" y="18" width="98" height="7" rx="1" fill="#d0d0d0"/>
    <rect x="34" y="30" width="228" height="118" rx="1" fill="none" stroke="#e4e4e4" stroke-width="0.8"/>
    <line x1="84" y1="30" x2="84" y2="148" stroke="#e8e8e8" stroke-width="0.8"/>
    <line x1="110" y1="30" x2="110" y2="148" stroke="#e8e8e8" stroke-width="0.8"/>
    <line x1="136" y1="30" x2="136" y2="148" stroke="#e8e8e8" stroke-width="0.8"/>
    <line x1="162" y1="30" x2="162" y2="148" stroke="#e8e8e8" stroke-width="0.8"/>
    <line x1="188" y1="30" x2="188" y2="148" stroke="#e8e8e8" stroke-width="0.8"/>
    <line x1="214" y1="30" x2="214" y2="148" stroke="#e8e8e8" stroke-width="0.8"/>
    <line x1="240" y1="30" x2="240" y2="148" stroke="#e8e8e8" stroke-width="0.8"/>
    <line x1="34" y1="48" x2="262" y2="48" stroke="#e8e8e8" stroke-width="0.8"/>
    <line x1="34" y1="66" x2="262" y2="66" stroke="#e8e8e8" stroke-width="0.8"/>
    <line x1="34" y1="84" x2="262" y2="84" stroke="#e8e8e8" stroke-width="0.8"/>
    <line x1="34" y1="102" x2="262" y2="102" stroke="#e8e8e8" stroke-width="0.8"/>
    <line x1="34" y1="120" x2="262" y2="120" stroke="#e8e8e8" stroke-width="0.8"/>
    <line x1="34" y1="138" x2="262" y2="138" stroke="#e8e8e8" stroke-width="0.8"/>
  </g>
  <rect x="18" y="158" width="264" height="40" fill="rgba(255,255,255,0.92)"/>
  <line x1="18" y1="158" x2="282" y2="158" stroke="#e0e0e0" stroke-width="0.8"/>
  <text x="150" y="174" dominant-baseline="middle" text-anchor="middle" font-size="13" fill="#111111" font-family="'PingFang TC','Microsoft JhengHei',sans-serif" font-weight="600" letter-spacing="0.04em">習慣追蹤表</text>
  <text x="150" y="191" dominant-baseline="middle" text-anchor="middle" font-size="8" fill="#aaaaaa" font-family="'PingFang TC','Microsoft JhengHei',sans-serif" letter-spacing="0.08em">Habit Tracker</text>
</svg>
