<svg xmlns="http://www.w3.org/2000/svg" viewBox="0 0 300 214">
  <rect width="100%" height="100%" fill="#ffffff" />
  <rect x="24" y="16" width="252" height="182" fill="#ffffff" stroke="#e1e1e1" stroke-width="1.5" rx="6" />
  <g opacity="0.6">
    <rect x="40" y="30" width="90" height="8" fill="#d2d2d2" stroke="none" stroke-width="1.5" rx="0" /><rect x="40" y="48" width="54" height="16" fill="#fafafa" stroke="#ddd" stroke-width="1.5" rx="0" /><rect x="100" y="48" width="12" height="16" fill="none" stroke="#e6e6e6" stroke-width="1" rx="0" /><rect x="116" y="48" width="12" height="16" fill="none" stroke="#e6e6e6" stroke-width="1" rx="0" /><rect x="132" y="48" width="12" height="16" fill="none" stroke="#e6e6e6" stroke-width="1" rx="0" /><rect x="148" y="48" width="12" height="16" fill="none" stroke="#e6e6e6" stroke-width="1" rx="0" /><rect x="164" y="48" width="12" height="16" fill="none" stroke="#e6e6e6" stroke-width="1" rx="0" /><rect x="180" y="48" width="12" height="16" fill="none" stroke="#e6e6e6" stroke-width="1" rx="0" /><rect x="196" y="48" width="12" height="16" fill="none" stroke="#e6e6e6" stroke-width="1" rx="0" /><rect x="212" y="48" width="12" height="16" fill="none" stroke="#e6e6e6" stroke-width="1" rx="0" /><rect x="228" y="48" width="12" height="16" fill="none" stroke="#e6e6e6" stroke-width="1" rx="0" /><rect x="244" y="48" width="12" height="16" fill="none" stroke="#e6e6e6" stroke-width="1" rx="0" /><rect x="40" y="68" width="54" height="16" fill="#fafafa" stroke="#ddd" stroke-width="1.5" rx="0" /><rect x="100" y="68" width="12" height="16" fill="none" stroke="#e6e6e6" stroke-width="1" rx="0" /><rect x="116" y="68" width="12" height="16" fill="none" stroke="#e6e6e6" stroke-width="1" rx="0" /><rect x="132" y="68" width="12" height="16" fill="none" stroke="#e6e6e6" stroke-width="1" rx="0" /><rect x="148" y="68" width="12" height="16" fill="none" stroke="#e6e6e6" stroke-width="1" rx="0" /><rect x="164" y="68" width="12" height="16" fill="none" stroke="#e6e6e6" stroke-width="1" rx="0" /><rect x="180" y="68" width="12" height="16" fill="none" stroke="#e6e6e6" stroke-width="1" rx="0" /><rect x="196" y="68" width="12" height="16" fill="none" stroke="#e6e6e6" stroke-width="1" rx="0" /><rect x="212" y="68" width="12" height="16" fill="none" stroke="#e6e6e6" stroke-width="1" rx="0" /><rect x="228" y="68" width="12" height="16" fill="none" stroke="#e6e6e6" stroke-width="1" rx="0" /><rect x="244" y="68" width="12" height="16" fill="none" stroke="#e6e6e6" stroke-width="1" rx="0" /><rect x="40" y="88" width="54" height="16" fill="#fafafa" stroke="#ddd" stroke-width="1.5" rx="0" /><rect x="100" y="88" width="12" height="16" fill="none" stroke="#e6e6e6" stroke-width="1" rx="0" /><rect x="116" y="88" width="12" height="16" fill="none" stroke="#e6e6e6" stroke-width="1" rx="0" /><rect x="132" y="88" width="12" height="16" fill="none" stroke="#e6e6e6" stroke-width="1" rx="0" /><rect x="148" y="88" width="12" height="16" fill="none" stroke="#e6e6e6" stroke-width="1" rx="0" /><rect x="164" y="88" width="12" height="16" fill="none" stroke="#e6e6e6" stroke-width="1" rx="0" /><rect x="180" y="88" width="12" height="16" fill="none" stroke="#e6e6e6" stroke-width="1" rx="0" /><rect x="196" y="88" width="12" height="16" fill="none" stroke="#e6e6e6" stroke-width="1" rx="0" /><rect x="212" y="88" width="12" height="16" fill="none" stroke="#e6e6e6" stroke-width="1" rx="0" /><rect x="228" y="88" width="12" height="16" fill="none" stroke="#e6e6e6" stroke-width="1" rx="0" /><rect x="244" y="88" width="12" height="16" fill="none" stroke="#e6e6e6" stroke-width="1" rx="0" /><rect x="40" y="108" width="54" height="16" fill="#fafafa" stroke="#ddd" stroke-width="1.5" rx="0" /><rect x="100" y="108" width="12" height="16" fill="none" stroke="#e6e6e6" stroke-width="1" rx="0" /><rect x="116" y="108" width="12" height="16" fill="none" stroke="#e6e6e6" stroke-width="1" rx="0" /><rect x="132" y="108" width="12" height="16" fill="none" stroke="#e6e6e6" stroke-width="1" rx="0" /><rect x="148" y="108" width="12" height="16" fill="none" stroke="#e6e6e6" stroke-width="1" rx="0" /><rect x="164" y="108" width="12" height="16" fill="none" stroke="#e6e6e6" stroke-width="1" rx="0" /><rect x="180" y="108" width="12" height="16" fill="none" stroke="#e6e6e6" stroke-width="1" rx="0" /><rect x="196" y="108" width="12" height="16" fill="none" stroke="#e6e6e6" stroke-width="1" rx="0" /><rect x="212" y="108" width="12" height="16" fill="none" stroke="#e6e6e6" stroke-width="1" rx="0" /><rect x="228" y="108" width="12" height="16" fill="none" stroke="#e6e6e6" stroke-width="1" rx="0" /><rect x="244" y="108" width="12" height="16" fill="none" stroke="#e6e6e6" stroke-width="1" rx="0" /><rect x="40" y="128" width="54" height="16" fill="#fafafa" stroke="#ddd" stroke-width="1.5" rx="0" /><rect x="100" y="128" width="12" height="16" fill="none" stroke="#e6e6e6" stroke-width="1" rx="0" /><rect x="116" y="128" width="12" height="16" fill="none" stroke="#e6e6e6" stroke-width="1" rx="0" /><rect x="132" y="128" width="12" height="16" fill="none" stroke="#e6e6e6" stroke-width="1" rx="0" /><rect x="148" y="128" width="12" height="16" fill="none" stroke="#e6e6e6" stroke-width="1" rx="0" /><rect x="164" y="128" width="12" height="16" fill="none" stroke="#e6e6e6" stroke-width="1" rx="0" /><rect x="180" y="128" width="12" height="16" fill="none" stroke="#e6e6e6" stroke-width="1" rx="0" /><rect x="196" y="128" width="12" height="16" fill="none" stroke="#e6e6e6" stroke-width="1" rx="0" /><rect x="212" y="128" width="12" height="16" fill="none" stroke="#e6e6e6" stroke-width="1" rx="0" /><rect x="228" y="128" width="12" height="16" fill="none" stroke="#e6e6e6" stroke-width="1" rx="0" /><rect x="244" y="128" width="12" height="16" fill="none" stroke="#e6e6e6" stroke-width="1" rx="0" />
  </g>
  <rect x="24" y="158" width="252" height="40" fill="rgba(255,255,255,0.85)" />
  <path d="M 24 158 L 276 158" stroke="rgba(0,0,0,0.05)" stroke-width="1" />
  <text x="150" y="178" dominant-baseline="middle" text-anchor="middle" font-size="13" fill="#111" font-family="'PingFang TC', sans-serif" font-weight="600" letter-spacing="0.05em">習慣追蹤表</text>
</svg>