<svg xmlns="http://www.w3.org/2000/svg" viewBox="0 0 300 214">
  <rect width="100%" height="100%" fill="#ffffff" />
  <rect x="24" y="16" width="252" height="182" fill="#ffffff" stroke="#e1e1e1" stroke-width="1.5" rx="6" />
  <g opacity="0.6">
    <rect x="40" y="30" width="100" height="8" fill="#d2d2d2" stroke="none" stroke-width="1.5" rx="0" /><rect x="40" y="48" width="38" height="18" fill="#fafafa" stroke="#ddd" stroke-width="1.5" rx="0" /><rect x="84" y="48" width="10" height="18" fill="none" stroke="#e7e7e7" stroke-width="1" rx="0" /><rect x="98" y="48" width="10" height="18" fill="none" stroke="#e7e7e7" stroke-width="1" rx="0" /><rect x="112" y="48" width="10" height="18" fill="none" stroke="#e7e7e7" stroke-width="1" rx="0" /><rect x="126" y="48" width="10" height="18" fill="none" stroke="#e7e7e7" stroke-width="1" rx="0" /><rect x="140" y="48" width="10" height="18" fill="none" stroke="#e7e7e7" stroke-width="1" rx="0" /><rect x="154" y="48" width="10" height="18" fill="none" stroke="#e7e7e7" stroke-width="1" rx="0" /><rect x="168" y="48" width="10" height="18" fill="none" stroke="#e7e7e7" stroke-width="1" rx="0" /><rect x="182" y="48" width="10" height="18" fill="none" stroke="#e7e7e7" stroke-width="1" rx="0" /><rect x="196" y="48" width="10" height="18" fill="none" stroke="#e7e7e7" stroke-width="1" rx="0" /><rect x="210" y="48" width="10" height="18" fill="none" stroke="#e7e7e7" stroke-width="1" rx="0" /><rect x="224" y="48" width="10" height="18" fill="none" stroke="#e7e7e7" stroke-width="1" rx="0" /><rect x="238" y="48" width="10" height="18" fill="none" stroke="#e7e7e7" stroke-width="1" rx="0" /><rect x="40" y="72" width="38" height="18" fill="#fafafa" stroke="#ddd" stroke-width="1.5" rx="0" /><rect x="84" y="72" width="10" height="18" fill="none" stroke="#e7e7e7" stroke-width="1" rx="0" /><rect x="98" y="72" width="10" height="18" fill="none" stroke="#e7e7e7" stroke-width="1" rx="0" /><rect x="112" y="72" width="10" height="18" fill="none" stroke="#e7e7e7" stroke-width="1" rx="0" /><rect x="126" y="72" width="10" height="18" fill="none" stroke="#e7e7e7" stroke-width="1" rx="0" /><rect x="140" y="72" width="10" height="18" fill="none" stroke="#e7e7e7" stroke-width="1" rx="0" /><rect x="154" y="72" width="10" height="18" fill="none" stroke="#e7e7e7" stroke-width="1" rx="0" /><rect x="168" y="72" width="10" height="18" fill="none" stroke="#e7e7e7" stroke-width="1" rx="0" /><rect x="182" y="72" width="10" height="18" fill="none" stroke="#e7e7e7" stroke-width="1" rx="0" /><rect x="196" y="72" width="10" height="18" fill="none" stroke="#e7e7e7" stroke-width="1" rx="0" /><rect x="210" y="72" width="10" height="18" fill="none" stroke="#e7e7e7" stroke-width="1" rx="0" /><rect x="224" y="72" width="10" height="18" fill="none" stroke="#e7e7e7" stroke-width="1" rx="0" /><rect x="238" y="72" width="10" height="18" fill="none" stroke="#e7e7e7" stroke-width="1" rx="0" /><rect x="40" y="96" width="38" height="18" fill="#fafafa" stroke="#ddd" stroke-width="1.5" rx="0" /><rect x="84" y="96" width="10" height="18" fill="none" stroke="#e7e7e7" stroke-width="1" rx="0" /><rect x="98" y="96" width="10" height="18" fill="none" stroke="#e7e7e7" stroke-width="1" rx="0" /><rect x="112" y="96" width="10" height="18" fill="none" stroke="#e7e7e7" stroke-width="1" rx="0" /><rect x="126" y="96" width="10" height="18" fill="none" stroke="#e7e7e7" stroke-width="1" rx="0" /><rect x="140" y="96" width="10" height="18" fill="none" stroke="#e7e7e7" stroke-width="1" rx="0" /><rect x="154" y="96" width="10" height="18" fill="none" stroke="#e7e7e7" stroke-width="1" rx="0" /><rect x="168" y="96" width="10" height="18" fill="none" stroke="#e7e7e7" stroke-width="1" rx="0" /><rect x="182" y="96" width="10" height="18" fill="none" stroke="#e7e7e7" stroke-width="1" rx="0" /><rect x="196" y="96" width="10" height="18" fill="none" stroke="#e7e7e7" stroke-width="1" rx="0" /><rect x="210" y="96" width="10" height="18" fill="none" stroke="#e7e7e7" stroke-width="1" rx="0" /><rect x="224" y="96" width="10" height="18" fill="none" stroke="#e7e7e7" stroke-width="1" rx="0" /><rect x="238" y="96" width="10" height="18" fill="none" stroke="#e7e7e7" stroke-width="1" rx="0" /><rect x="40" y="120" width="38" height="18" fill="#fafafa" stroke="#ddd" stroke-width="1.5" rx="0" /><rect x="84" y="120" width="10" height="18" fill="none" stroke="#e7e7e7" stroke-width="1" rx="0" /><rect x="98" y="120" width="10" height="18" fill="none" stroke="#e7e7e7" stroke-width="1" rx="0" /><rect x="112" y="120" width="10" height="18" fill="none" stroke="#e7e7e7" stroke-width="1" rx="0" /><rect x="126" y="120" width="10" height="18" fill="none" stroke="#e7e7e7" stroke-width="1" rx="0" /><rect x="140" y="120" width="10" height="18" fill="none" stroke="#e7e7e7" stroke-width="1" rx="0" /><rect x="154" y="120" width="10" height="18" fill="none" stroke="#e7e7e7" stroke-width="1" rx="0" /><rect x="168" y="120" width="10" height="18" fill="none" stroke="#e7e7e7" stroke-width="1" rx="0" /><rect x="182" y="120" width="10" height="18" fill="none" stroke="#e7e7e7" stroke-width="1" rx="0" /><rect x="196" y="120" width="10" height="18" fill="none" stroke="#e7e7e7" stroke-width="1" rx="0" /><rect x="210" y="120" width="10" height="18" fill="none" stroke="#e7e7e7" stroke-width="1" rx="0" /><rect x="224" y="120" width="10" height="18" fill="none" stroke="#e7e7e7" stroke-width="1" rx="0" /><rect x="238" y="120" width="10" height="18" fill="none" stroke="#e7e7e7" stroke-width="1" rx="0" /><line x1="40" y1="152" x2="260" y2="152" stroke="#eaeaea" stroke-width="1.5" stroke-dasharray="" /><line x1="40" y1="162" x2="260" y2="162" stroke="#eaeaea" stroke-width="1.5" stroke-dasharray="" />
  </g>
  <rect x="24" y="158" width="252" height="40" fill="rgba(255,255,255,0.85)" />
  <path d="M 24 158 L 276 158" stroke="rgba(0,0,0,0.05)" stroke-width="1" />
  <text x="150" y="178" dominant-baseline="middle" text-anchor="middle" font-size="13" fill="#111" font-family="'PingFang TC', sans-serif" font-weight="600" letter-spacing="0.05em">每月習慣追蹤表</text>
</svg>