<svg xmlns="http://www.w3.org/2000/svg" viewBox="0 0 300 214">
  <rect width="100%" height="100%" fill="#ffffff" />
  <rect x="24" y="16" width="252" height="182" fill="#ffffff" stroke="#e1e1e1" stroke-width="1.5" rx="6" />
  <g opacity="0.6">
    <rect x="40" y="30" width="120" height="8" fill="#d2d2d2" stroke="none" stroke-width="1.5" rx="0" /><rect x="72" y="48" width="22" height="16" fill="#f5f5f5" stroke="#ddd" stroke-width="1.5" rx="0" /><rect x="99" y="48" width="22" height="16" fill="#f5f5f5" stroke="#ddd" stroke-width="1.5" rx="0" /><rect x="126" y="48" width="22" height="16" fill="#f5f5f5" stroke="#ddd" stroke-width="1.5" rx="0" /><rect x="153" y="48" width="22" height="16" fill="#f5f5f5" stroke="#ddd" stroke-width="1.5" rx="0" /><rect x="180" y="48" width="22" height="16" fill="#f5f5f5" stroke="#ddd" stroke-width="1.5" rx="0" /><rect x="207" y="48" width="22" height="16" fill="#f5f5f5" stroke="#ddd" stroke-width="1.5" rx="0" /><rect x="234" y="48" width="22" height="16" fill="#f5f5f5" stroke="#ddd" stroke-width="1.5" rx="0" /><rect x="40" y="66" width="26" height="14" fill="#fafafa" stroke="#ddd" stroke-width="1.5" rx="0" /><circle cx="83" cy="73" r="4" fill="none" stroke="#c8c8c8" stroke-width="1.2" /><circle cx="110" cy="73" r="4" fill="none" stroke="#c8c8c8" stroke-width="1.2" /><circle cx="137" cy="73" r="4" fill="none" stroke="#c8c8c8" stroke-width="1.2" /><circle cx="164" cy="73" r="4" fill="none" stroke="#c8c8c8" stroke-width="1.2" /><circle cx="191" cy="73" r="4" fill="none" stroke="#c8c8c8" stroke-width="1.2" /><circle cx="218" cy="73" r="4" fill="none" stroke="#c8c8c8" stroke-width="1.2" /><circle cx="245" cy="73" r="4" fill="none" stroke="#c8c8c8" stroke-width="1.2" /><rect x="40" y="84" width="26" height="14" fill="#fafafa" stroke="#ddd" stroke-width="1.5" rx="0" /><circle cx="83" cy="91" r="4" fill="none" stroke="#c8c8c8" stroke-width="1.2" /><circle cx="110" cy="91" r="4" fill="none" stroke="#c8c8c8" stroke-width="1.2" /><circle cx="137" cy="91" r="4" fill="none" stroke="#c8c8c8" stroke-width="1.2" /><circle cx="164" cy="91" r="4" fill="none" stroke="#c8c8c8" stroke-width="1.2" /><circle cx="191" cy="91" r="4" fill="none" stroke="#c8c8c8" stroke-width="1.2" /><circle cx="218" cy="91" r="4" fill="none" stroke="#c8c8c8" stroke-width="1.2" /><circle cx="245" cy="91" r="4" fill="none" stroke="#c8c8c8" stroke-width="1.2" /><rect x="40" y="102" width="26" height="14" fill="#fafafa" stroke="#ddd" stroke-width="1.5" rx="0" /><circle cx="83" cy="109" r="4" fill="none" stroke="#c8c8c8" stroke-width="1.2" /><circle cx="110" cy="109" r="4" fill="none" stroke="#c8c8c8" stroke-width="1.2" /><circle cx="137" cy="109" r="4" fill="none" stroke="#c8c8c8" stroke-width="1.2" /><circle cx="164" cy="109" r="4" fill="none" stroke="#c8c8c8" stroke-width="1.2" /><circle cx="191" cy="109" r="4" fill="none" stroke="#c8c8c8" stroke-width="1.2" /><circle cx="218" cy="109" r="4" fill="none" stroke="#c8c8c8" stroke-width="1.2" /><circle cx="245" cy="109" r="4" fill="none" stroke="#c8c8c8" stroke-width="1.2" /><rect x="40" y="120" width="26" height="14" fill="#fafafa" stroke="#ddd" stroke-width="1.5" rx="0" /><circle cx="83" cy="127" r="4" fill="none" stroke="#c8c8c8" stroke-width="1.2" /><circle cx="110" cy="127" r="4" fill="none" stroke="#c8c8c8" stroke-width="1.2" /><circle cx="137" cy="127" r="4" fill="none" stroke="#c8c8c8" stroke-width="1.2" /><circle cx="164" cy="127" r="4" fill="none" stroke="#c8c8c8" stroke-width="1.2" /><circle cx="191" cy="127" r="4" fill="none" stroke="#c8c8c8" stroke-width="1.2" /><circle cx="218" cy="127" r="4" fill="none" stroke="#c8c8c8" stroke-width="1.2" /><circle cx="245" cy="127" r="4" fill="none" stroke="#c8c8c8" stroke-width="1.2" /><rect x="40" y="138" width="26" height="14" fill="#fafafa" stroke="#ddd" stroke-width="1.5" rx="0" /><circle cx="83" cy="145" r="4" fill="none" stroke="#c8c8c8" stroke-width="1.2" /><circle cx="110" cy="145" r="4" fill="none" stroke="#c8c8c8" stroke-width="1.2" /><circle cx="137" cy="145" r="4" fill="none" stroke="#c8c8c8" stroke-width="1.2" /><circle cx="164" cy="145" r="4" fill="none" stroke="#c8c8c8" stroke-width="1.2" /><circle cx="191" cy="145" r="4" fill="none" stroke="#c8c8c8" stroke-width="1.2" /><circle cx="218" cy="145" r="4" fill="none" stroke="#c8c8c8" stroke-width="1.2" /><circle cx="245" cy="145" r="4" fill="none" stroke="#c8c8c8" stroke-width="1.2" />
  </g>
  <rect x="24" y="158" width="252" height="40" fill="rgba(255,255,255,0.85)" />
  <path d="M 24 158 L 276 158" stroke="rgba(0,0,0,0.05)" stroke-width="1" />
  <text x="150" y="178" dominant-baseline="middle" text-anchor="middle" font-size="13" fill="#111" font-family="'PingFang TC', sans-serif" font-weight="600" letter-spacing="0.05em">每週習慣追蹤表</text>
</svg>