<svg xmlns="http://www.w3.org/2000/svg" viewBox="0 0 300 214">
  <rect width="300" height="214" fill="#f0f0f0"/>
  <rect x="18" y="10" width="264" height="188" rx="3" fill="#ffffff" stroke="#d8d8d8" stroke-width="1"/>
  <rect x="18" y="10" width="264" height="3" fill="#65a30d"/>
  <line x1="30" y1="10" x2="30" y2="198" stroke="#e8e8e8" stroke-width="0.8"/>
  <g opacity="0.65">
    <rect x="34" y="18" width="120" height="7" rx="1" fill="#d0d0d0"/>
    <rect x="34" y="30" width="228" height="20" rx="1" fill="#eeeeee"/>
    <rect x="34" y="56" width="228" height="92" rx="1" fill="none" stroke="#e4e4e4" stroke-width="0.8"/>
    <line x1="66" y1="56" x2="66" y2="148" stroke="#e8e8e8" stroke-width="0.8"/>
    <line x1="98" y1="56" x2="98" y2="148" stroke="#e8e8e8" stroke-width="0.8"/>
    <line x1="130" y1="56" x2="130" y2="148" stroke="#e8e8e8" stroke-width="0.8"/>
    <line x1="162" y1="56" x2="162" y2="148" stroke="#e8e8e8" stroke-width="0.8"/>
    <line x1="194" y1="56" x2="194" y2="148" stroke="#e8e8e8" stroke-width="0.8"/>
    <line x1="226" y1="56" x2="226" y2="148" stroke="#e8e8e8" stroke-width="0.8"/>
    <line x1="34" y1="74" x2="262" y2="74" stroke="#e8e8e8" stroke-width="0.8"/>
    <line x1="34" y1="92" x2="262" y2="92" stroke="#e8e8e8" stroke-width="0.8"/>
    <line x1="34" y1="110" x2="262" y2="110" stroke="#e8e8e8" stroke-width="0.8"/>
    <line x1="34" y1="128" x2="262" y2="128" stroke="#e8e8e8" stroke-width="0.8"/>
  </g>
  <rect x="18" y="158" width="264" height="40" fill="rgba(255,255,255,0.92)"/>
  <line x1="18" y1="158" x2="282" y2="158" stroke="#e0e0e0" stroke-width="0.8"/>
  <text x="150" y="174" dominant-baseline="middle" text-anchor="middle" font-size="13" fill="#111111" font-family="'PingFang TC','Microsoft JhengHei',sans-serif" font-weight="600" letter-spacing="0.04em">每週習慣追蹤表</text>
  <text x="150" y="191" dominant-baseline="middle" text-anchor="middle" font-size="8" fill="#aaaaaa" font-family="'PingFang TC','Microsoft JhengHei',sans-serif" letter-spacing="0.08em">Weekly Habit Tracker</text>
</svg>
