<svg xmlns="http://www.w3.org/2000/svg" viewBox="0 0 300 214">
  <rect width="300" height="214" fill="#f0f0f0"/>
  <rect x="18" y="10" width="264" height="188" rx="3" fill="#ffffff" stroke="#d8d8d8" stroke-width="1"/>
  <rect x="18" y="10" width="264" height="3" fill="#ea580c"/>
  <line x1="30" y1="10" x2="30" y2="198" stroke="#e8e8e8" stroke-width="0.8"/>
  <g opacity="0.65">
    <rect x="34" y="18" width="132" height="7" rx="1" fill="#d0d0d0"/>
    <rect x="34" y="30" width="42" height="86" rx="1" fill="#fafafa" stroke="#e4e4e4" stroke-width="0.8"/>
    <rect x="80" y="30" width="46" height="40" rx="1" fill="#fafafa" stroke="#e4e4e4" stroke-width="0.8"/>
    <rect x="80" y="76" width="46" height="40" rx="1" fill="#fafafa" stroke="#e4e4e4" stroke-width="0.8"/>
    <rect x="130" y="30" width="42" height="86" rx="1" fill="#fafafa" stroke="#d8d8d8" stroke-width="1"/>
    <rect x="176" y="30" width="42" height="40" rx="1" fill="#fafafa" stroke="#e4e4e4" stroke-width="0.8"/>
    <rect x="176" y="76" width="42" height="40" rx="1" fill="#fafafa" stroke="#e4e4e4" stroke-width="0.8"/>
    <rect x="222" y="30" width="40" height="86" rx="1" fill="#fafafa" stroke="#e4e4e4" stroke-width="0.8"/>
    <rect x="34" y="121" width="112" height="26" rx="1" fill="#fafafa" stroke="#e4e4e4" stroke-width="0.8"/>
    <rect x="150" y="121" width="112" height="26" rx="1" fill="#fafafa" stroke="#e4e4e4" stroke-width="0.8"/>
    <rect x="38" y="36" width="18" height="6" rx="1" fill="#d8d8d8"/>
    <rect x="84" y="36" width="18" height="6" rx="1" fill="#d8d8d8"/>
    <rect x="84" y="82" width="18" height="6" rx="1" fill="#d8d8d8"/>
    <rect x="134" y="36" width="18" height="6" rx="1" fill="#d8d8d8"/>
    <rect x="180" y="36" width="18" height="6" rx="1" fill="#d8d8d8"/>
    <rect x="180" y="82" width="18" height="6" rx="1" fill="#d8d8d8"/>
    <rect x="226" y="36" width="18" height="6" rx="1" fill="#d8d8d8"/>
    <rect x="38" y="127" width="20" height="6" rx="1" fill="#d8d8d8"/>
    <rect x="154" y="127" width="20" height="6" rx="1" fill="#d8d8d8"/>
    <line x1="38" y1="48" x2="72" y2="48" stroke="#e8e8e8" stroke-width="0.8"/>
    <line x1="38" y1="56" x2="72" y2="56" stroke="#e8e8e8" stroke-width="0.8"/>
    <line x1="38" y1="64" x2="72" y2="64" stroke="#e8e8e8" stroke-width="0.8"/>
    <line x1="84" y1="48" x2="122" y2="48" stroke="#e8e8e8" stroke-width="0.8"/>
    <line x1="84" y1="56" x2="122" y2="56" stroke="#e8e8e8" stroke-width="0.8"/>
    <line x1="84" y1="94" x2="122" y2="94" stroke="#e8e8e8" stroke-width="0.8"/>
    <line x1="84" y1="102" x2="122" y2="102" stroke="#e8e8e8" stroke-width="0.8"/>
    <line x1="134" y1="48" x2="168" y2="48" stroke="#e8e8e8" stroke-width="0.8"/>
    <line x1="134" y1="56" x2="168" y2="56" stroke="#e8e8e8" stroke-width="0.8"/>
    <line x1="134" y1="64" x2="168" y2="64" stroke="#e8e8e8" stroke-width="0.8"/>
    <line x1="180" y1="48" x2="214" y2="48" stroke="#e8e8e8" stroke-width="0.8"/>
    <line x1="180" y1="94" x2="214" y2="94" stroke="#e8e8e8" stroke-width="0.8"/>
    <line x1="226" y1="48" x2="258" y2="48" stroke="#e8e8e8" stroke-width="0.8"/>
    <line x1="226" y1="56" x2="258" y2="56" stroke="#e8e8e8" stroke-width="0.8"/>
    <line x1="226" y1="64" x2="258" y2="64" stroke="#e8e8e8" stroke-width="0.8"/>
    <line x1="38" y1="139" x2="142" y2="139" stroke="#e8e8e8" stroke-width="0.8"/>
    <line x1="154" y1="139" x2="258" y2="139" stroke="#e8e8e8" stroke-width="0.8"/>
  </g>
  <rect x="18" y="158" width="264" height="40" fill="rgba(255,255,255,0.92)"/>
  <line x1="18" y1="158" x2="282" y2="158" stroke="#e0e0e0" stroke-width="0.8"/>
  <text x="150" y="174" dominant-baseline="middle" text-anchor="middle" font-size="13" fill="#111111" font-family="'PingFang TC','Microsoft JhengHei',sans-serif" font-weight="600" letter-spacing="0.04em">商業模式九宮格</text>
  <text x="150" y="191" dominant-baseline="middle" text-anchor="middle" font-size="8" fill="#aaaaaa" font-family="'PingFang TC','Microsoft JhengHei',sans-serif" letter-spacing="0.08em">Business Model Canvas</text>
</svg>
