<svg xmlns="http://www.w3.org/2000/svg" viewBox="0 0 300 214">
  <rect width="300" height="214" fill="#f0f0f0"/>
  <rect x="18" y="10" width="264" height="188" rx="3" fill="#ffffff" stroke="#d8d8d8" stroke-width="1"/>
  <rect x="18" y="10" width="264" height="3" fill="#ea580c"/>
  <line x1="30" y1="10" x2="30" y2="198" stroke="#e8e8e8" stroke-width="0.8"/>
  <g opacity="0.65">
    <rect x="34" y="18" width="124" height="7" rx="1" fill="#d0d0d0"/>
    <rect x="34" y="30" width="54" height="82" rx="1" fill="#f6f6f6" stroke="#e4e4e4" stroke-width="0.8"/>
    <rect x="92" y="30" width="42" height="38" rx="1" fill="#f6f6f6" stroke="#e4e4e4" stroke-width="0.8"/>
    <rect x="138" y="30" width="42" height="82" rx="1" fill="#f6f6f6" stroke="#dcdcdc" stroke-width="1"/>
    <rect x="184" y="30" width="42" height="38" rx="1" fill="#f6f6f6" stroke="#e4e4e4" stroke-width="0.8"/>
    <rect x="230" y="30" width="32" height="82" rx="1" fill="#f6f6f6" stroke="#e4e4e4" stroke-width="0.8"/>
    <rect x="92" y="74" width="42" height="38" rx="1" fill="#f6f6f6" stroke="#e4e4e4" stroke-width="0.8"/>
    <rect x="184" y="74" width="42" height="38" rx="1" fill="#f6f6f6" stroke="#e4e4e4" stroke-width="0.8"/>
    <rect x="34" y="117" width="146" height="26" rx="1" fill="#f6f6f6" stroke="#e4e4e4" stroke-width="0.8"/>
    <rect x="184" y="117" width="78" height="26" rx="1" fill="#f6f6f6" stroke="#e4e4e4" stroke-width="0.8"/>
    <rect x="38" y="36" width="20" height="6" rx="1" fill="#d8d8d8"/>
    <rect x="96" y="36" width="20" height="6" rx="1" fill="#d8d8d8"/>
    <rect x="142" y="36" width="20" height="6" rx="1" fill="#d8d8d8"/>
    <rect x="188" y="36" width="20" height="6" rx="1" fill="#d8d8d8"/>
    <rect x="234" y="36" width="20" height="6" rx="1" fill="#d8d8d8"/>
    <rect x="96" y="80" width="20" height="6" rx="1" fill="#d8d8d8"/>
    <rect x="188" y="80" width="20" height="6" rx="1" fill="#d8d8d8"/>
    <rect x="38" y="123" width="22" height="6" rx="1" fill="#d8d8d8"/>
    <rect x="188" y="123" width="22" height="6" rx="1" fill="#d8d8d8"/>
    <line x1="38" y1="48" x2="84" y2="48" stroke="#e8e8e8" stroke-width="0.8"/>
    <line x1="38" y1="56" x2="84" y2="56" stroke="#e8e8e8" stroke-width="0.8"/>
    <line x1="38" y1="64" x2="84" y2="64" stroke="#e8e8e8" stroke-width="0.8"/>
    <line x1="96" y1="48" x2="130" y2="48" stroke="#e8e8e8" stroke-width="0.8"/>
    <line x1="142" y1="48" x2="176" y2="48" stroke="#e8e8e8" stroke-width="0.8"/>
    <line x1="142" y1="56" x2="176" y2="56" stroke="#e8e8e8" stroke-width="0.8"/>
    <line x1="188" y1="48" x2="222" y2="48" stroke="#e8e8e8" stroke-width="0.8"/>
    <line x1="234" y1="48" x2="258" y2="48" stroke="#e8e8e8" stroke-width="0.8"/>
    <line x1="234" y1="56" x2="258" y2="56" stroke="#e8e8e8" stroke-width="0.8"/>
    <line x1="96" y1="92" x2="130" y2="92" stroke="#e8e8e8" stroke-width="0.8"/>
    <line x1="188" y1="92" x2="222" y2="92" stroke="#e8e8e8" stroke-width="0.8"/>
    <line x1="38" y1="135" x2="176" y2="135" stroke="#e8e8e8" stroke-width="0.8"/>
    <line x1="188" y1="135" x2="258" y2="135" stroke="#e8e8e8" stroke-width="0.8"/>
    <rect x="34" y="147" width="48" height="8" rx="1" fill="#f5f5f5" stroke="#ececec" stroke-width="0.8"/>
    <rect x="86" y="147" width="48" height="8" rx="1" fill="#f5f5f5" stroke="#ececec" stroke-width="0.8"/>
    <rect x="138" y="147" width="48" height="8" rx="1" fill="#f5f5f5" stroke="#ececec" stroke-width="0.8"/>
    <rect x="190" y="147" width="48" height="8" rx="1" fill="#f5f5f5" stroke="#ececec" stroke-width="0.8"/>
    <rect x="242" y="147" width="20" height="8" rx="1" fill="#f5f5f5" stroke="#ececec" stroke-width="0.8"/>
  </g>
  <rect x="18" y="158" width="264" height="40" fill="rgba(255,255,255,0.92)"/>
  <line x1="18" y1="158" x2="282" y2="158" stroke="#e0e0e0" stroke-width="0.8"/>
  <text x="150" y="174" dominant-baseline="middle" text-anchor="middle" font-size="13" fill="#111111" font-family="'PingFang TC','Microsoft JhengHei',sans-serif" font-weight="600" letter-spacing="0.04em">專案管理九宮</text>
  <text x="150" y="191" dominant-baseline="middle" text-anchor="middle" font-size="8" fill="#aaaaaa" font-family="'PingFang TC','Microsoft JhengHei',sans-serif" letter-spacing="0.08em">Project Management Canvas</text>
</svg>
