<svg xmlns="http://www.w3.org/2000/svg" viewBox="0 0 300 214">
  <rect width="300" height="214" fill="#f0f0f0"/>
  <rect x="18" y="10" width="264" height="188" rx="3" fill="#ffffff" stroke="#d8d8d8" stroke-width="1"/>
  <rect x="18" y="10" width="264" height="3" fill="#ea580c"/>
  <line x1="30" y1="10" x2="30" y2="198" stroke="#e8e8e8" stroke-width="0.8"/>
  <g opacity="0.65">
    <!-- Title -->
    <rect x="34" y="18" width="100" height="7" rx="1" fill="#d0d0d0"/>
    <!-- 2x2 SWOT quadrants -->
    <!-- S quadrant -->
    <rect x="34" y="30" width="111" height="58" rx="1" fill="#fafafa" stroke="#e4e4e4" stroke-width="0.8"/>
    <rect x="34" y="30" width="30" height="7" rx="1" fill="#d8d8d8"/>
    <line x1="34" y1="44" x2="145" y2="44" stroke="#e8e8e8" stroke-width="0.8"/>
    <line x1="34" y1="52" x2="145" y2="52" stroke="#e8e8e8" stroke-width="0.8"/>
    <line x1="34" y1="60" x2="145" y2="60" stroke="#e8e8e8" stroke-width="0.8"/>
    <line x1="34" y1="68" x2="145" y2="68" stroke="#e8e8e8" stroke-width="0.8"/>
    <!-- W quadrant -->
    <rect x="151" y="30" width="111" height="58" rx="1" fill="#fafafa" stroke="#e4e4e4" stroke-width="0.8"/>
    <rect x="151" y="30" width="30" height="7" rx="1" fill="#d8d8d8"/>
    <line x1="151" y1="44" x2="262" y2="44" stroke="#e8e8e8" stroke-width="0.8"/>
    <line x1="151" y1="52" x2="262" y2="52" stroke="#e8e8e8" stroke-width="0.8"/>
    <line x1="151" y1="60" x2="262" y2="60" stroke="#e8e8e8" stroke-width="0.8"/>
    <line x1="151" y1="68" x2="262" y2="68" stroke="#e8e8e8" stroke-width="0.8"/>
    <!-- O quadrant -->
    <rect x="34" y="94" width="111" height="58" rx="1" fill="#fafafa" stroke="#e4e4e4" stroke-width="0.8"/>
    <rect x="34" y="94" width="30" height="7" rx="1" fill="#d8d8d8"/>
    <line x1="34" y1="108" x2="145" y2="108" stroke="#e8e8e8" stroke-width="0.8"/>
    <line x1="34" y1="116" x2="145" y2="116" stroke="#e8e8e8" stroke-width="0.8"/>
    <line x1="34" y1="124" x2="145" y2="124" stroke="#e8e8e8" stroke-width="0.8"/>
    <line x1="34" y1="132" x2="145" y2="132" stroke="#e8e8e8" stroke-width="0.8"/>
    <!-- T quadrant -->
    <rect x="151" y="94" width="111" height="58" rx="1" fill="#fafafa" stroke="#e4e4e4" stroke-width="0.8"/>
    <rect x="151" y="94" width="30" height="7" rx="1" fill="#d8d8d8"/>
    <line x1="151" y1="108" x2="262" y2="108" stroke="#e8e8e8" stroke-width="0.8"/>
    <line x1="151" y1="116" x2="262" y2="116" stroke="#e8e8e8" stroke-width="0.8"/>
    <line x1="151" y1="124" x2="262" y2="124" stroke="#e8e8e8" stroke-width="0.8"/>
    <line x1="151" y1="132" x2="262" y2="132" stroke="#e8e8e8" stroke-width="0.8"/>
  </g>
  <rect x="18" y="158" width="264" height="40" fill="rgba(255,255,255,0.92)"/>
  <line x1="18" y1="158" x2="282" y2="158" stroke="#e0e0e0" stroke-width="0.8"/>
  <text x="150" y="174" dominant-baseline="middle" text-anchor="middle" font-size="13" fill="#111111" font-family="'PingFang TC','Microsoft JhengHei',sans-serif" font-weight="600" letter-spacing="0.04em">SWOT 分析</text>
  <text x="150" y="191" dominant-baseline="middle" text-anchor="middle" font-size="8" fill="#aaaaaa" font-family="'PingFang TC','Microsoft JhengHei',sans-serif" letter-spacing="0.08em">SWOT Analysis</text>
</svg>
