<svg xmlns="http://www.w3.org/2000/svg" viewBox="0 0 300 214">
  <rect width="300" height="214" fill="#f0f0f0"/>
  <rect x="18" y="10" width="264" height="188" rx="3" fill="#ffffff" stroke="#d8d8d8" stroke-width="1"/>
  <rect x="18" y="10" width="264" height="3" fill="#1a1a1a"/>
  <line x1="30" y1="10" x2="30" y2="198" stroke="#e8e8e8" stroke-width="0.8"/>
  <g opacity="0.65">
    <!-- 3 equal columns -->
    <line x1="120" y1="16" x2="120" y2="154" stroke="#e4e4e4" stroke-width="0.8"/>
    <line x1="192" y1="16" x2="192" y2="154" stroke="#e4e4e4" stroke-width="0.8"/>
    <!-- Column 1: 昨天 -->
    <rect x="34" y="18" width="80" height="7" rx="1" fill="#d0d0d0"/>
    <rect x="34" y="32" width="5" height="5" rx="0.5" fill="none" stroke="#c0c0c0" stroke-width="0.8"/>
    <line x1="44" y1="34" x2="114" y2="34" stroke="#e0e0e0" stroke-width="1"/>
    <rect x="34" y="44" width="5" height="5" rx="0.5" fill="none" stroke="#c0c0c0" stroke-width="0.8"/>
    <line x1="44" y1="46" x2="114" y2="46" stroke="#e0e0e0" stroke-width="1"/>
    <rect x="34" y="56" width="5" height="5" rx="0.5" fill="none" stroke="#c0c0c0" stroke-width="0.8"/>
    <line x1="44" y1="58" x2="114" y2="58" stroke="#e0e0e0" stroke-width="1"/>
    <!-- Column 2: 今天 -->
    <rect x="126" y="18" width="60" height="7" rx="1" fill="#d0d0d0"/>
    <rect x="126" y="32" width="5" height="5" rx="0.5" fill="none" stroke="#c0c0c0" stroke-width="0.8"/>
    <line x1="136" y1="34" x2="186" y2="34" stroke="#e0e0e0" stroke-width="1"/>
    <rect x="126" y="44" width="5" height="5" rx="0.5" fill="none" stroke="#c0c0c0" stroke-width="0.8"/>
    <line x1="136" y1="46" x2="186" y2="46" stroke="#e0e0e0" stroke-width="1"/>
    <rect x="126" y="56" width="5" height="5" rx="0.5" fill="none" stroke="#c0c0c0" stroke-width="0.8"/>
    <line x1="136" y1="58" x2="186" y2="58" stroke="#e0e0e0" stroke-width="1"/>
    <!-- Column 3: 阻礙 -->
    <rect x="198" y="18" width="60" height="7" rx="1" fill="#d0d0d0"/>
    <rect x="198" y="32" width="5" height="5" rx="0.5" fill="none" stroke="#c0c0c0" stroke-width="0.8"/>
    <line x1="208" y1="34" x2="258" y2="34" stroke="#e0e0e0" stroke-width="1"/>
    <rect x="198" y="44" width="5" height="5" rx="0.5" fill="none" stroke="#c0c0c0" stroke-width="0.8"/>
    <line x1="208" y1="46" x2="258" y2="46" stroke="#e0e0e0" stroke-width="1"/>
    <rect x="198" y="56" width="5" height="5" rx="0.5" fill="none" stroke="#c0c0c0" stroke-width="0.8"/>
    <line x1="208" y1="58" x2="258" y2="58" stroke="#e0e0e0" stroke-width="1"/>
    <!-- Notes area bottom -->
    <rect x="34" y="72" width="228" height="32" rx="1" fill="#fafafa" stroke="#e4e4e4" stroke-width="0.8"/>
    <line x1="34" y1="82" x2="262" y2="82" stroke="#e8e8e8" stroke-width="0.8"/>
    <line x1="34" y1="92" x2="262" y2="92" stroke="#e8e8e8" stroke-width="0.8"/>
    <!-- Another section -->
    <rect x="34" y="112" width="228" height="36" rx="1" fill="#fafafa" stroke="#e4e4e4" stroke-width="0.8"/>
    <line x1="34" y1="122" x2="262" y2="122" stroke="#e8e8e8" stroke-width="0.8"/>
    <line x1="34" y1="132" x2="262" y2="132" stroke="#e8e8e8" stroke-width="0.8"/>
    <line x1="34" y1="142" x2="262" y2="142" stroke="#e8e8e8" stroke-width="0.8"/>
  </g>
  <rect x="18" y="158" width="264" height="40" fill="rgba(255,255,255,0.92)"/>
  <line x1="18" y1="158" x2="282" y2="158" stroke="#e0e0e0" stroke-width="0.8"/>
  <text x="150" y="174" dominant-baseline="middle" text-anchor="middle" font-size="13" fill="#111111" font-family="'PingFang TC','Microsoft JhengHei',sans-serif" font-weight="600" letter-spacing="0.04em">每日站會</text>
  <text x="150" y="191" dominant-baseline="middle" text-anchor="middle" font-size="8" fill="#aaaaaa" font-family="'PingFang TC','Microsoft JhengHei',sans-serif" letter-spacing="0.08em">Daily Standup</text>
</svg>
