<svg xmlns="http://www.w3.org/2000/svg" viewBox="0 0 594 594">
  <rect width="594" height="594" fill="#ece6de"/>
  <g transform="translate(87 0)">
    <rect width="420" height="594" fill="#ece6de"/>
    <rect x="30" y="24" width="360" height="546" rx="18" fill="#fff" stroke="#d9d1c6"/>
    <rect x="64" y="56" width="6" height="470" fill="#ded7cd"/>
    <rect x="88" y="62" width="180" height="16" rx="8" fill="#b1846f"/>
    <g stroke="#d8d2c8" stroke-width="2">
      <rect x="88" y="92" width="242" height="10" rx="4" fill="#faf8f4"/>
      <rect x="88" y="114" width="242" height="120" rx="6" fill="#faf8f4"/>
      <rect x="88" y="246" width="242" height="120" rx="6" fill="#faf8f4"/>
      <rect x="88" y="378" width="242" height="60" rx="6" fill="#faf8f4"/>
      <rect x="88" y="450" width="242" height="26" rx="6" fill="#faf8f4"/>
    </g>
    <line x1="88" y1="154" x2="330" y2="154" stroke="#e8e2da" stroke-width="1"/>
    <line x1="88" y1="194" x2="330" y2="194" stroke="#e8e2da" stroke-width="1"/>
    <line x1="88" y1="286" x2="330" y2="286" stroke="#e8e2da" stroke-width="1"/>
    <line x1="88" y1="326" x2="330" y2="326" stroke="#e8e2da" stroke-width="1"/>
  </g>
</svg>
