<svg xmlns="http://www.w3.org/2000/svg" viewBox="0 0 300 214">
  <rect width="100%" height="100%" fill="#ffffff" />
  <rect x="24" y="16" width="252" height="182" fill="#ffffff" stroke="#e1e1e1" stroke-width="1.5" rx="6" />
  <g opacity="0.6">
    <rect x="40" y="35" width="80" height="8" fill="#d2d2d2" stroke="none" stroke-width="1.5" rx="0" /><rect x="40" y="55" width="70" height="100" fill="none" stroke="#ccc" stroke-width="1.5" rx="0" /><rect x="115" y="55" width="70" height="100" fill="none" stroke="#ccc" stroke-width="1.5" rx="0" /><rect x="190" y="55" width="70" height="100" fill="none" stroke="#ccc" stroke-width="1.5" rx="0" /><rect x="40" y="55" width="70" height="15" fill="#f0f0f0" stroke="#ccc" stroke-width="1.5" rx="0" /><rect x="115" y="55" width="70" height="15" fill="#f0f0f0" stroke="#ccc" stroke-width="1.5" rx="0" /><rect x="190" y="55" width="70" height="15" fill="#f0f0f0" stroke="#ccc" stroke-width="1.5" rx="0" /><line x1="45" y1="80" x2="95" y2="80" stroke="#eaeaea" stroke-width="1.5" stroke-dasharray="" /><line x1="45" y1="95" x2="95" y2="95" stroke="#eaeaea" stroke-width="1.5" stroke-dasharray="" /><line x1="45" y1="110" x2="95" y2="110" stroke="#eaeaea" stroke-width="1.5" stroke-dasharray="" /><line x1="120" y1="80" x2="170" y2="80" stroke="#eaeaea" stroke-width="1.5" stroke-dasharray="" /><line x1="120" y1="95" x2="170" y2="95" stroke="#eaeaea" stroke-width="1.5" stroke-dasharray="" />
  </g>
  <rect x="24" y="158" width="252" height="40" fill="rgba(255,255,255,0.85)" />
  <path d="M 24 158 L 276 158" stroke="rgba(0,0,0,0.05)" stroke-width="1" />
  <text x="150" y="178" dominant-baseline="middle" text-anchor="middle" font-size="13" fill="#111" font-family="'PingFang TC', sans-serif" font-weight="600" letter-spacing="0.05em">站會紀錄</text>
</svg>