<svg xmlns="http://www.w3.org/2000/svg" viewBox="0 0 300 214">
  <rect width="100%" height="100%" fill="#ffffff" />
  <rect x="24" y="16" width="252" height="182" fill="#ffffff" stroke="#e1e1e1" stroke-width="1.5" rx="6" />
  <g opacity="0.6">
    <rect x="40" y="40" width="68" height="38" fill="#f5f5f5" stroke="#ccc" stroke-width="1.5" rx="0" /><line x1="40" y1="40" x2="108" y2="78" stroke="#eaeaea" stroke-width="1.5" stroke-dasharray="" /><line x1="108" y1="40" x2="40" y2="78" stroke="#eaeaea" stroke-width="1.5" stroke-dasharray="" /><line x1="40" y1="90" x2="108" y2="90" stroke="#eaeaea" stroke-width="1.5" stroke-dasharray="" /><line x1="40" y1="100" x2="108" y2="100" stroke="#eaeaea" stroke-width="1.5" stroke-dasharray="" /><line x1="40" y1="110" x2="108" y2="110" stroke="#eaeaea" stroke-width="1.5" stroke-dasharray="" /><line x1="40" y1="120" x2="108" y2="120" stroke="#eaeaea" stroke-width="1.5" stroke-dasharray="" /><rect x="116" y="40" width="68" height="38" fill="#f5f5f5" stroke="#ccc" stroke-width="1.5" rx="0" /><line x1="116" y1="40" x2="184" y2="78" stroke="#eaeaea" stroke-width="1.5" stroke-dasharray="" /><line x1="184" y1="40" x2="116" y2="78" stroke="#eaeaea" stroke-width="1.5" stroke-dasharray="" /><line x1="116" y1="90" x2="184" y2="90" stroke="#eaeaea" stroke-width="1.5" stroke-dasharray="" /><line x1="116" y1="100" x2="184" y2="100" stroke="#eaeaea" stroke-width="1.5" stroke-dasharray="" /><line x1="116" y1="110" x2="184" y2="110" stroke="#eaeaea" stroke-width="1.5" stroke-dasharray="" /><line x1="116" y1="120" x2="184" y2="120" stroke="#eaeaea" stroke-width="1.5" stroke-dasharray="" /><rect x="192" y="40" width="68" height="38" fill="#f5f5f5" stroke="#ccc" stroke-width="1.5" rx="0" /><line x1="192" y1="40" x2="260" y2="78" stroke="#eaeaea" stroke-width="1.5" stroke-dasharray="" /><line x1="260" y1="40" x2="192" y2="78" stroke="#eaeaea" stroke-width="1.5" stroke-dasharray="" /><line x1="192" y1="90" x2="260" y2="90" stroke="#eaeaea" stroke-width="1.5" stroke-dasharray="" /><line x1="192" y1="100" x2="260" y2="100" stroke="#eaeaea" stroke-width="1.5" stroke-dasharray="" /><line x1="192" y1="110" x2="260" y2="110" stroke="#eaeaea" stroke-width="1.5" stroke-dasharray="" /><line x1="192" y1="120" x2="260" y2="120" stroke="#eaeaea" stroke-width="1.5" stroke-dasharray="" />
  </g>
  <rect x="24" y="158" width="252" height="40" fill="rgba(255,255,255,0.85)" />
  <path d="M 24 158 L 276 158" stroke="rgba(0,0,0,0.05)" stroke-width="1" />
  <text x="150" y="178" dominant-baseline="middle" text-anchor="middle" font-size="13" fill="#111" font-family="'PingFang TC', sans-serif" font-weight="600" letter-spacing="0.05em">手繪分鏡圖</text>
</svg>