<svg xmlns="http://www.w3.org/2000/svg" viewBox="0 0 300 214">
  <rect width="300" height="214" fill="#f0f0f0"/>
  <rect x="18" y="10" width="264" height="188" rx="3" fill="#ffffff" stroke="#d8d8d8" stroke-width="1"/>
  <rect x="18" y="10" width="264" height="3" fill="#1a1a1a"/>
  <line x1="30" y1="10" x2="30" y2="198" stroke="#e8e8e8" stroke-width="0.8"/>
  <g opacity="0.65">
    <!-- Two vertical A5 columns -->
    <line x1="148" y1="18" x2="148" y2="154" stroke="#c8c8c8" stroke-width="0.8" stroke-dasharray="3,2"/>
    <!-- Left column -->
    <rect x="34" y="18" width="108" height="7" rx="1" fill="#d0d0d0"/>
    <line x1="34" y1="34" x2="142" y2="34" stroke="#e0e0e0" stroke-width="1"/>
    <line x1="34" y1="42" x2="142" y2="42" stroke="#e0e0e0" stroke-width="1"/>
    <line x1="34" y1="50" x2="142" y2="50" stroke="#e0e0e0" stroke-width="1"/>
    <line x1="34" y1="58" x2="142" y2="58" stroke="#e0e0e0" stroke-width="1"/>
    <rect x="34" y="66" width="108" height="28" rx="1" fill="#fafafa" stroke="#e4e4e4" stroke-width="0.8"/>
    <line x1="34" y1="102" x2="142" y2="102" stroke="#e0e0e0" stroke-width="1"/>
    <line x1="34" y1="110" x2="142" y2="110" stroke="#e0e0e0" stroke-width="1"/>
    <line x1="34" y1="118" x2="142" y2="118" stroke="#e0e0e0" stroke-width="1"/>
    <line x1="34" y1="126" x2="142" y2="126" stroke="#e0e0e0" stroke-width="1"/>
    <line x1="34" y1="134" x2="142" y2="134" stroke="#e0e0e0" stroke-width="1"/>
    <line x1="34" y1="142" x2="142" y2="142" stroke="#e0e0e0" stroke-width="1"/>
    <!-- Right column -->
    <rect x="152" y="18" width="108" height="7" rx="1" fill="#d0d0d0"/>
    <line x1="152" y1="34" x2="260" y2="34" stroke="#e0e0e0" stroke-width="1"/>
    <line x1="152" y1="42" x2="260" y2="42" stroke="#e0e0e0" stroke-width="1"/>
    <line x1="152" y1="50" x2="260" y2="50" stroke="#e0e0e0" stroke-width="1"/>
    <line x1="152" y1="58" x2="260" y2="58" stroke="#e0e0e0" stroke-width="1"/>
    <rect x="152" y="66" width="108" height="28" rx="1" fill="#fafafa" stroke="#e4e4e4" stroke-width="0.8"/>
    <line x1="152" y1="102" x2="260" y2="102" stroke="#e0e0e0" stroke-width="1"/>
    <line x1="152" y1="110" x2="260" y2="110" stroke="#e0e0e0" stroke-width="1"/>
    <line x1="152" y1="118" x2="260" y2="118" stroke="#e0e0e0" stroke-width="1"/>
    <line x1="152" y1="126" x2="260" y2="126" stroke="#e0e0e0" stroke-width="1"/>
    <line x1="152" y1="134" x2="260" y2="134" stroke="#e0e0e0" stroke-width="1"/>
    <line x1="152" y1="142" x2="260" y2="142" stroke="#e0e0e0" stroke-width="1"/>
  </g>
  <rect x="18" y="158" width="264" height="40" fill="rgba(255,255,255,0.92)"/>
  <line x1="18" y1="158" x2="282" y2="158" stroke="#e0e0e0" stroke-width="0.8"/>
  <text x="150" y="174" dominant-baseline="middle" text-anchor="middle" font-size="13" fill="#111111" font-family="'PingFang TC','Microsoft JhengHei',sans-serif" font-weight="600" letter-spacing="0.04em">工作日誌</text>
  <text x="150" y="191" dominant-baseline="middle" text-anchor="middle" font-size="8" fill="#aaaaaa" font-family="'PingFang TC','Microsoft JhengHei',sans-serif" letter-spacing="0.08em">Work Journal</text>
</svg>
