<svg xmlns="http://www.w3.org/2000/svg" viewBox="0 0 300 214">
  <rect width="300" height="214" fill="#f0f0f0"/>
  <rect x="18" y="10" width="264" height="188" rx="3" fill="#ffffff" stroke="#d8d8d8" stroke-width="1"/>
  <rect x="18" y="10" width="264" height="3" fill="#db2777"/>
  <line x1="30" y1="10" x2="30" y2="198" stroke="#e8e8e8" stroke-width="0.8"/>
  <g opacity="0.65">
    <!-- 4 cols x 5 rows calendar grid -->
    <!-- Header row with platform labels -->
    <rect x="34" y="18" width="228" height="9" rx="1" fill="#eeeeee"/>
    <line x1="92" y1="18" x2="92" y2="154" stroke="#e4e4e4" stroke-width="0.8"/>
    <line x1="150" y1="18" x2="150" y2="154" stroke="#e4e4e4" stroke-width="0.8"/>
    <line x1="208" y1="18" x2="208" y2="154" stroke="#e4e4e4" stroke-width="0.8"/>
    <!-- Row dividers -->
    <line x1="34" y1="27" x2="262" y2="27" stroke="#e4e4e4" stroke-width="0.8"/>
    <line x1="34" y1="53" x2="262" y2="53" stroke="#e4e4e4" stroke-width="0.8"/>
    <line x1="34" y1="79" x2="262" y2="79" stroke="#e4e4e4" stroke-width="0.8"/>
    <line x1="34" y1="105" x2="262" y2="105" stroke="#e4e4e4" stroke-width="0.8"/>
    <line x1="34" y1="131" x2="262" y2="131" stroke="#e4e4e4" stroke-width="0.8"/>
    <!-- Border -->
    <rect x="34" y="18" width="228" height="136" rx="1" fill="none" stroke="#e4e4e4" stroke-width="0.8"/>
    <!-- Content lines in cells -->
    <line x1="38" y1="36" x2="88" y2="36" stroke="#e0e0e0" stroke-width="1"/>
    <line x1="38" y1="44" x2="88" y2="44" stroke="#e0e0e0" stroke-width="1"/>
    <line x1="96" y1="36" x2="146" y2="36" stroke="#e0e0e0" stroke-width="1"/>
    <line x1="96" y1="44" x2="146" y2="44" stroke="#e0e0e0" stroke-width="1"/>
    <line x1="154" y1="36" x2="204" y2="36" stroke="#e0e0e0" stroke-width="1"/>
    <line x1="154" y1="44" x2="204" y2="44" stroke="#e0e0e0" stroke-width="1"/>
    <line x1="212" y1="36" x2="258" y2="36" stroke="#e0e0e0" stroke-width="1"/>
    <line x1="212" y1="44" x2="258" y2="44" stroke="#e0e0e0" stroke-width="1"/>
    <!-- row 2 -->
    <line x1="38" y1="62" x2="88" y2="62" stroke="#e0e0e0" stroke-width="1"/>
    <line x1="38" y1="70" x2="88" y2="70" stroke="#e0e0e0" stroke-width="1"/>
    <line x1="96" y1="62" x2="146" y2="62" stroke="#e0e0e0" stroke-width="1"/>
    <line x1="96" y1="70" x2="146" y2="70" stroke="#e0e0e0" stroke-width="1"/>
    <line x1="154" y1="62" x2="204" y2="62" stroke="#e0e0e0" stroke-width="1"/>
    <line x1="154" y1="70" x2="204" y2="70" stroke="#e0e0e0" stroke-width="1"/>
    <line x1="212" y1="62" x2="258" y2="62" stroke="#e0e0e0" stroke-width="1"/>
    <!-- row 3 -->
    <line x1="38" y1="88" x2="88" y2="88" stroke="#e0e0e0" stroke-width="1"/>
    <line x1="38" y1="96" x2="88" y2="96" stroke="#e0e0e0" stroke-width="1"/>
    <line x1="96" y1="88" x2="146" y2="88" stroke="#e0e0e0" stroke-width="1"/>
    <line x1="154" y1="88" x2="204" y2="88" stroke="#e0e0e0" stroke-width="1"/>
    <line x1="212" y1="88" x2="258" y2="88" stroke="#e0e0e0" stroke-width="1"/>
    <!-- row 4 -->
    <line x1="38" y1="114" x2="88" y2="114" stroke="#e0e0e0" stroke-width="1"/>
    <line x1="96" y1="114" x2="146" y2="114" stroke="#e0e0e0" stroke-width="1"/>
    <line x1="154" y1="114" x2="204" y2="114" stroke="#e0e0e0" stroke-width="1"/>
    <line x1="212" y1="114" x2="258" y2="114" stroke="#e0e0e0" stroke-width="1"/>
    <!-- row 5 -->
    <line x1="38" y1="140" x2="88" y2="140" stroke="#e0e0e0" stroke-width="1"/>
    <line x1="96" y1="140" x2="146" y2="140" stroke="#e0e0e0" stroke-width="1"/>
  </g>
  <rect x="18" y="158" width="264" height="40" fill="rgba(255,255,255,0.92)"/>
  <line x1="18" y1="158" x2="282" y2="158" stroke="#e0e0e0" stroke-width="0.8"/>
  <text x="150" y="174" dominant-baseline="middle" text-anchor="middle" font-size="13" fill="#111111" font-family="'PingFang TC','Microsoft JhengHei',sans-serif" font-weight="600" letter-spacing="0.04em">內容日曆</text>
  <text x="150" y="191" dominant-baseline="middle" text-anchor="middle" font-size="8" fill="#aaaaaa" font-family="'PingFang TC','Microsoft JhengHei',sans-serif" letter-spacing="0.08em">Content Calendar</text>
</svg>
