<svg xmlns="http://www.w3.org/2000/svg" viewBox="0 0 300 214">
  <rect width="100%" height="100%" fill="#ffffff" />
  <rect x="24" y="16" width="252" height="182" fill="#ffffff" stroke="#e1e1e1" stroke-width="1.5" rx="6" />
  <g opacity="0.6">
    <rect x="40" y="30" width="80" height="6" fill="#d2d2d2" stroke="none" stroke-width="1.5" rx="0" /><rect x="40" y="45" width="32" height="20" fill="none" stroke="#ccc" stroke-width="1.5" rx="0" /><rect x="42" y="47" width="12" height="12" fill="#eaeaea" stroke="none" stroke-width="1.5" rx="0" /><rect x="78" y="45" width="32" height="20" fill="none" stroke="#ccc" stroke-width="1.5" rx="0" /><rect x="80" y="47" width="12" height="12" fill="#eaeaea" stroke="none" stroke-width="1.5" rx="0" /><rect x="116" y="45" width="32" height="20" fill="none" stroke="#ccc" stroke-width="1.5" rx="0" /><rect x="118" y="47" width="12" height="12" fill="#eaeaea" stroke="none" stroke-width="1.5" rx="0" /><rect x="154" y="45" width="32" height="20" fill="none" stroke="#ccc" stroke-width="1.5" rx="0" /><rect x="156" y="47" width="12" height="12" fill="#eaeaea" stroke="none" stroke-width="1.5" rx="0" /><rect x="192" y="45" width="32" height="20" fill="none" stroke="#ccc" stroke-width="1.5" rx="0" /><rect x="194" y="47" width="12" height="12" fill="#eaeaea" stroke="none" stroke-width="1.5" rx="0" /><rect x="230" y="45" width="32" height="20" fill="none" stroke="#ccc" stroke-width="1.5" rx="0" /><rect x="232" y="47" width="12" height="12" fill="#eaeaea" stroke="none" stroke-width="1.5" rx="0" /><rect x="40" y="71" width="32" height="20" fill="none" stroke="#ccc" stroke-width="1.5" rx="0" /><rect x="42" y="73" width="12" height="12" fill="#eaeaea" stroke="none" stroke-width="1.5" rx="0" /><rect x="78" y="71" width="32" height="20" fill="none" stroke="#ccc" stroke-width="1.5" rx="0" /><rect x="80" y="73" width="12" height="12" fill="#eaeaea" stroke="none" stroke-width="1.5" rx="0" /><rect x="116" y="71" width="32" height="20" fill="none" stroke="#ccc" stroke-width="1.5" rx="0" /><rect x="118" y="73" width="12" height="12" fill="#eaeaea" stroke="none" stroke-width="1.5" rx="0" /><rect x="154" y="71" width="32" height="20" fill="none" stroke="#ccc" stroke-width="1.5" rx="0" /><rect x="156" y="73" width="12" height="12" fill="#eaeaea" stroke="none" stroke-width="1.5" rx="0" /><rect x="192" y="71" width="32" height="20" fill="none" stroke="#ccc" stroke-width="1.5" rx="0" /><rect x="194" y="73" width="12" height="12" fill="#eaeaea" stroke="none" stroke-width="1.5" rx="0" /><rect x="230" y="71" width="32" height="20" fill="none" stroke="#ccc" stroke-width="1.5" rx="0" /><rect x="232" y="73" width="12" height="12" fill="#eaeaea" stroke="none" stroke-width="1.5" rx="0" /><rect x="40" y="97" width="32" height="20" fill="none" stroke="#ccc" stroke-width="1.5" rx="0" /><rect x="42" y="99" width="12" height="12" fill="#eaeaea" stroke="none" stroke-width="1.5" rx="0" /><rect x="78" y="97" width="32" height="20" fill="none" stroke="#ccc" stroke-width="1.5" rx="0" /><rect x="80" y="99" width="12" height="12" fill="#eaeaea" stroke="none" stroke-width="1.5" rx="0" /><rect x="116" y="97" width="32" height="20" fill="none" stroke="#ccc" stroke-width="1.5" rx="0" /><rect x="118" y="99" width="12" height="12" fill="#eaeaea" stroke="none" stroke-width="1.5" rx="0" /><rect x="154" y="97" width="32" height="20" fill="none" stroke="#ccc" stroke-width="1.5" rx="0" /><rect x="156" y="99" width="12" height="12" fill="#eaeaea" stroke="none" stroke-width="1.5" rx="0" /><rect x="192" y="97" width="32" height="20" fill="none" stroke="#ccc" stroke-width="1.5" rx="0" /><rect x="194" y="99" width="12" height="12" fill="#eaeaea" stroke="none" stroke-width="1.5" rx="0" /><rect x="230" y="97" width="32" height="20" fill="none" stroke="#ccc" stroke-width="1.5" rx="0" /><rect x="232" y="99" width="12" height="12" fill="#eaeaea" stroke="none" stroke-width="1.5" rx="0" /><rect x="40" y="123" width="32" height="20" fill="none" stroke="#ccc" stroke-width="1.5" rx="0" /><rect x="42" y="125" width="12" height="12" fill="#eaeaea" stroke="none" stroke-width="1.5" rx="0" /><rect x="78" y="123" width="32" height="20" fill="none" stroke="#ccc" stroke-width="1.5" rx="0" /><rect x="80" y="125" width="12" height="12" fill="#eaeaea" stroke="none" stroke-width="1.5" rx="0" /><rect x="116" y="123" width="32" height="20" fill="none" stroke="#ccc" stroke-width="1.5" rx="0" /><rect x="118" y="125" width="12" height="12" fill="#eaeaea" stroke="none" stroke-width="1.5" rx="0" /><rect x="154" y="123" width="32" height="20" fill="none" stroke="#ccc" stroke-width="1.5" rx="0" /><rect x="156" y="125" width="12" height="12" fill="#eaeaea" stroke="none" stroke-width="1.5" rx="0" /><rect x="192" y="123" width="32" height="20" fill="none" stroke="#ccc" stroke-width="1.5" rx="0" /><rect x="194" y="125" width="12" height="12" fill="#eaeaea" stroke="none" stroke-width="1.5" rx="0" /><rect x="230" y="123" width="32" height="20" fill="none" stroke="#ccc" stroke-width="1.5" rx="0" /><rect x="232" y="125" width="12" height="12" fill="#eaeaea" stroke="none" stroke-width="1.5" rx="0" />
  </g>
  <rect x="24" y="158" width="252" height="40" fill="rgba(255,255,255,0.85)" />
  <path d="M 24 158 L 276 158" stroke="rgba(0,0,0,0.05)" stroke-width="1" />
  <text x="150" y="178" dominant-baseline="middle" text-anchor="middle" font-size="13" fill="#111" font-family="'PingFang TC', sans-serif" font-weight="600" letter-spacing="0.05em">內容行事曆</text>
</svg>