<svg xmlns="http://www.w3.org/2000/svg" viewBox="0 0 300 214">
  <rect width="300" height="214" fill="#f0f0f0"/>
  <rect x="18" y="10" width="264" height="188" rx="3" fill="#ffffff" stroke="#d8d8d8" stroke-width="1"/>
  <rect x="18" y="10" width="264" height="3" fill="#db2777"/>
  <line x1="30" y1="10" x2="30" y2="198" stroke="#e8e8e8" stroke-width="0.8"/>
  <g opacity="0.65">
    <!-- 7 rows of social post slots -->
    <!-- Row 1 -->
    <rect x="34" y="18" width="8" height="8" rx="1" fill="#e0e0e0"/>
    <line x1="46" y1="20" x2="90" y2="20" stroke="#ddd" stroke-width="1"/>
    <line x1="96" y1="20" x2="220" y2="20" stroke="#e0e0e0" stroke-width="1"/>
    <rect x="222" y="17" width="40" height="6" rx="1" fill="#fafafa" stroke="#e4e4e4" stroke-width="0.8"/>
    <!-- Row 2 -->
    <rect x="34" y="34" width="8" height="8" rx="1" fill="#e0e0e0"/>
    <line x1="46" y1="36" x2="90" y2="36" stroke="#ddd" stroke-width="1"/>
    <line x1="96" y1="36" x2="220" y2="36" stroke="#e0e0e0" stroke-width="1"/>
    <rect x="222" y="33" width="40" height="6" rx="1" fill="#fafafa" stroke="#e4e4e4" stroke-width="0.8"/>
    <!-- Row 3 -->
    <rect x="34" y="50" width="8" height="8" rx="1" fill="#e0e0e0"/>
    <line x1="46" y1="52" x2="90" y2="52" stroke="#ddd" stroke-width="1"/>
    <line x1="96" y1="52" x2="220" y2="52" stroke="#e0e0e0" stroke-width="1"/>
    <rect x="222" y="49" width="40" height="6" rx="1" fill="#fafafa" stroke="#e4e4e4" stroke-width="0.8"/>
    <!-- Row 4 -->
    <rect x="34" y="66" width="8" height="8" rx="1" fill="#e0e0e0"/>
    <line x1="46" y1="68" x2="90" y2="68" stroke="#ddd" stroke-width="1"/>
    <line x1="96" y1="68" x2="220" y2="68" stroke="#e0e0e0" stroke-width="1"/>
    <rect x="222" y="65" width="40" height="6" rx="1" fill="#fafafa" stroke="#e4e4e4" stroke-width="0.8"/>
    <!-- Row 5 -->
    <rect x="34" y="82" width="8" height="8" rx="1" fill="#e0e0e0"/>
    <line x1="46" y1="84" x2="90" y2="84" stroke="#ddd" stroke-width="1"/>
    <line x1="96" y1="84" x2="220" y2="84" stroke="#e0e0e0" stroke-width="1"/>
    <rect x="222" y="81" width="40" height="6" rx="1" fill="#fafafa" stroke="#e4e4e4" stroke-width="0.8"/>
    <!-- Row 6 -->
    <rect x="34" y="98" width="8" height="8" rx="1" fill="#e0e0e0"/>
    <line x1="46" y1="100" x2="90" y2="100" stroke="#ddd" stroke-width="1"/>
    <line x1="96" y1="100" x2="220" y2="100" stroke="#e0e0e0" stroke-width="1"/>
    <rect x="222" y="97" width="40" height="6" rx="1" fill="#fafafa" stroke="#e4e4e4" stroke-width="0.8"/>
    <!-- Row 7 -->
    <rect x="34" y="114" width="8" height="8" rx="1" fill="#e0e0e0"/>
    <line x1="46" y1="116" x2="90" y2="116" stroke="#ddd" stroke-width="1"/>
    <line x1="96" y1="116" x2="220" y2="116" stroke="#e0e0e0" stroke-width="1"/>
    <rect x="222" y="113" width="40" height="6" rx="1" fill="#fafafa" stroke="#e4e4e4" stroke-width="0.8"/>
    <!-- Bottom notes -->
    <rect x="34" y="130" width="228" height="22" rx="1" fill="#fafafa" stroke="#e4e4e4" stroke-width="0.8"/>
    <line x1="34" y1="140" x2="262" y2="140" stroke="#e8e8e8" stroke-width="0.8"/>
  </g>
  <rect x="18" y="158" width="264" height="40" fill="rgba(255,255,255,0.92)"/>
  <line x1="18" y1="158" x2="282" y2="158" stroke="#e0e0e0" stroke-width="0.8"/>
  <text x="150" y="174" dominant-baseline="middle" text-anchor="middle" font-size="13" fill="#111111" font-family="'PingFang TC','Microsoft JhengHei',sans-serif" font-weight="600" letter-spacing="0.04em">社群貼文排程</text>
  <text x="150" y="191" dominant-baseline="middle" text-anchor="middle" font-size="8" fill="#aaaaaa" font-family="'PingFang TC','Microsoft JhengHei',sans-serif" letter-spacing="0.08em">Social Plan</text>
</svg>
