<svg xmlns="http://www.w3.org/2000/svg" viewBox="0 0 300 214">
  <rect width="100%" height="100%" fill="#ffffff" />
  <rect x="24" y="16" width="252" height="182" fill="#ffffff" stroke="#e1e1e1" stroke-width="1.5" rx="6" />
  <g opacity="0.6">
    <rect x="50" y="35" width="60" height="110" fill="#fff" stroke="#ccc" stroke-width="2" rx="8" /><rect x="55" y="45" width="50" height="50" fill="none" stroke="#ccc" stroke-width="1.5" rx="0" /><line x1="55" y1="105" x2="105" y2="105" stroke="#eaeaea" stroke-width="1.5" stroke-dasharray="" /><line x1="55" y1="115" x2="105" y2="115" stroke="#eaeaea" stroke-width="1.5" stroke-dasharray="" /><line x1="55" y1="125" x2="105" y2="125" stroke="#eaeaea" stroke-width="1.5" stroke-dasharray="" /><line x1="140" y1="55" x2="250" y2="55" stroke="#eaeaea" stroke-width="1.5" stroke-dasharray="" /><line x1="140" y1="70" x2="250" y2="70" stroke="#eaeaea" stroke-width="1.5" stroke-dasharray="" /><line x1="140" y1="85" x2="250" y2="85" stroke="#eaeaea" stroke-width="1.5" stroke-dasharray="" /><line x1="140" y1="100" x2="250" y2="100" stroke="#eaeaea" stroke-width="1.5" stroke-dasharray="" /><circle cx="146" cy="125" r="4" fill="none" stroke="#ccc" stroke-width="1.2" /><line x1="158" y1="125" x2="230" y2="125" stroke="#eee" stroke-width="1.5" stroke-dasharray="" />
  </g>
  <rect x="24" y="158" width="252" height="40" fill="rgba(255,255,255,0.85)" />
  <path d="M 24 158 L 276 158" stroke="rgba(0,0,0,0.05)" stroke-width="1" />
  <text x="150" y="178" dominant-baseline="middle" text-anchor="middle" font-size="13" fill="#111" font-family="'PingFang TC', sans-serif" font-weight="600" letter-spacing="0.05em">社群發文計畫表</text>
</svg>